<svg width="69" height="21" viewBox="0 0 69 21" fill="none" xmlns="http://www.w3.org/2000/svg">
<g clip-path="url(#clip0)">
<path d="M19.1241 2.94052C18.5561 3.62862 17.6473 4.17135 16.7386 4.09382C16.625 3.16342 17.0699 2.17488 17.5905 1.56431C18.1585 0.856818 19.1525 0.352853 19.9571 0.314087C20.0518 1.28325 19.6826 2.23303 19.1241 2.94052ZM19.9476 4.27796C18.6318 4.20043 17.5053 5.0436 16.8806 5.0436C16.2463 5.0436 15.2902 4.31673 14.249 4.33611C12.8953 4.35549 11.6363 5.14051 10.9452 6.39073C9.52531 8.89117 10.5761 12.5934 11.9487 14.6286C12.6208 15.6365 13.4254 16.7414 14.4856 16.7026C15.489 16.6639 15.8866 16.0339 17.0983 16.0339C18.3194 16.0339 18.6697 16.7026 19.7299 16.6832C20.828 16.6639 21.519 15.6753 22.1911 14.6674C22.9579 13.5238 23.2703 12.4092 23.2892 12.3511C23.2703 12.3317 21.1688 11.5079 21.1498 9.02685C21.1309 6.95285 22.8064 5.9643 22.8822 5.90615C21.9355 4.47179 20.4588 4.31673 19.9476 4.27796V4.27796ZM27.549 1.46739V16.5766H29.8398V11.411H33.011C35.9077 11.411 37.9429 9.37575 37.9429 6.4295C37.9429 3.48325 35.9456 1.46739 33.0868 1.46739H27.549ZM29.8398 3.44448H32.4809C34.4688 3.44448 35.6048 4.52994 35.6048 6.43919C35.6048 8.34844 34.4688 9.44359 32.4715 9.44359H29.8398V3.44448ZM42.127 16.6929C43.5659 16.6929 44.9006 15.9467 45.5065 14.7643H45.5538V16.5766H47.6742V9.05593C47.6742 6.87531 45.9703 5.47003 43.3482 5.47003C40.9153 5.47003 39.1168 6.8947 39.0505 8.85241H41.1141C41.2845 7.92201 42.127 7.31144 43.2819 7.31144C44.6829 7.31144 45.4686 7.98016 45.4686 9.211V10.0445L42.6098 10.2189C39.9498 10.3837 38.5109 11.4982 38.5109 13.4365C38.5109 15.3942 39.9971 16.6929 42.127 16.6929V16.6929ZM42.7423 14.9C41.5212 14.9 40.7449 14.2991 40.7449 13.3784C40.7449 12.4286 41.4928 11.8762 42.9222 11.789L45.4686 11.6242V12.4771C45.4686 13.892 44.2948 14.9 42.7423 14.9V14.9ZM50.5046 20.6859C52.7387 20.6859 53.7894 19.8136 54.7076 17.1678L58.7308 5.6154H56.4021L53.7042 14.5414H53.6569L50.959 5.6154H48.5641L52.4452 16.6154L52.237 17.2841C51.8867 18.418 51.3187 18.8542 50.3058 18.8542C50.126 18.8542 49.7757 18.8348 49.6337 18.8154V20.6277C49.7663 20.6665 50.3342 20.6859 50.5046 20.6859V20.6859Z" fill="black"/>
</g>
<defs>
<clipPath id="clip0">
<rect width="68.4616" height="20.3718" fill="white" transform="translate(0.269226 0.314087)"/>
</clipPath>
</defs>
</svg>
