<svg width="75" height="21" viewBox="0 0 75 21" fill="none" xmlns="http://www.w3.org/2000/svg">
<g clip-path="url(#clip0)">
<path d="M36.0129 10.2608V16.4146H33.9809V1.21395H39.3673C40.6666 1.18737 41.9222 1.66142 42.8553 2.52977C43.7999 3.34718 44.3321 4.5168 44.3114 5.73737C44.339 6.9668 43.8068 8.14528 42.8553 8.9649C41.913 9.82882 40.7496 10.2608 39.3673 10.2586L36.0129 10.2608ZM36.0129 3.08579V8.39338H39.418C40.1736 8.41553 40.9016 8.12977 41.4269 7.60699C42.4936 6.61015 42.5189 4.9687 41.4799 3.94306C41.4615 3.92534 41.4453 3.90762 41.4269 3.89212C40.9086 3.35825 40.1759 3.06585 39.418 3.08579H36.0129ZM48.9928 5.67534C50.4949 5.67534 51.6791 6.06079 52.5476 6.83167C53.4162 7.60256 53.8493 8.66142 53.8493 10.0038V16.4146H51.9072V14.9703H51.8196C50.9787 16.1598 49.859 16.7535 48.4629 16.7535C47.2718 16.7535 46.2742 16.4146 45.4725 15.7345C44.6938 15.1032 44.2514 14.1684 44.2699 13.1871C44.2699 12.1105 44.6938 11.2554 45.5393 10.6196C46.3848 9.98389 47.5137 9.6649 48.9283 9.6649C50.1332 9.6649 51.1285 9.87756 51.9072 10.3007V9.85319C51.9118 9.1842 51.6031 8.55066 51.0686 8.12534C50.5318 7.66015 49.8314 7.40541 49.108 7.41427C47.9745 7.41427 47.076 7.87503 46.4148 8.79433L44.627 7.7111C45.6084 6.35319 47.0645 5.67534 48.9928 5.67534ZM46.3641 13.2314C46.3618 13.7364 46.6129 14.2105 47.0368 14.5051C47.4861 14.844 48.0436 15.0257 48.615 15.0146C49.472 15.0124 50.2945 14.6845 50.9004 14.1019C51.5731 13.4927 51.9095 12.7795 51.9095 11.9576C51.2759 11.4725 50.3935 11.2288 49.26 11.2288C48.4353 11.2288 47.7464 11.4193 47.1958 11.8026C46.6405 12.1924 46.3641 12.6643 46.3641 13.2314ZM65 6.01427L58.2197 21H56.1232L58.639 15.7567L54.1788 6.01427H56.3859L59.609 13.4861H59.6527L62.7883 6.01427H65Z" fill="black"/>
<path d="M27.8042 8.93167C27.8042 8.33579 27.7536 7.74212 27.6476 7.15509H19.0818V10.5177H23.9867C23.784 11.6032 23.1297 12.5624 22.1736 13.1715V15.3557H25.1018C26.8159 13.8383 27.8042 11.5899 27.8042 8.93167Z" fill="#4285F4"/>
<path d="M19.0818 17.4667C21.5331 17.4667 23.5974 16.6936 25.1018 15.3579L22.1736 13.1737C21.358 13.7054 20.3098 14.0088 19.0818 14.0088C16.7134 14.0088 14.7022 12.4737 13.9834 10.4047H10.9676V12.6554C12.5089 15.606 15.6491 17.4667 19.0818 17.4667Z" fill="#34A853"/>
<path d="M13.9834 10.4048C13.6032 9.32153 13.6032 8.14526 13.9834 7.06203V4.8114H10.9676C9.67746 7.27912 9.67746 10.1877 10.9676 12.6554L13.9834 10.4048Z" fill="#FBBC04"/>
<path d="M19.0818 3.45789C20.3766 3.43796 21.6276 3.90758 22.5652 4.76707L25.1594 2.27498C23.5144 0.790804 21.3373 -0.0243855 19.0818 -1.83758e-05C15.6491 -1.83758e-05 12.5089 1.86296 10.9676 4.81137L13.9834 7.06201C14.7022 4.99302 16.7134 3.45789 19.0818 3.45789Z" fill="#EA4335"/>
</g>
<defs>
<clipPath id="clip0">
<rect width="55" height="21" fill="white" transform="translate(10)"/>
</clipPath>
</defs>
</svg>
