<svg width="937" height="935" viewBox="0 0 937 935" fill="none" xmlns="http://www.w3.org/2000/svg">
<path d="M686.658 447.087C686.658 250.493 686.664 248.333 686.664 246.147C686.664 212.142 659.031 184.573 624.939 184.573C624.794 184.573 624.648 184.58 624.503 184.58C624.781 182.218 624.939 179.812 624.939 177.368C624.939 143.363 597.305 115.788 563.213 115.788C555.006 115.788 547.177 117.4 540.012 120.304C532.846 117.4 525.024 115.788 516.81 115.788C509.411 115.788 502.321 117.092 495.743 119.473C491.412 89.6934 465.723 66.8174 434.674 66.8174C406.194 66.8174 382.229 86.0655 375.114 112.229C368.573 109.88 361.528 108.589 354.179 108.589C320.087 108.589 292.453 136.157 292.453 170.169C292.453 175.938 293.268 181.512 294.752 186.803C268.665 194.002 249.498 217.836 249.498 246.147C249.498 248.339 249.504 250.474 249.504 447.087H686.658Z" fill="#2D8D52"/>
<path d="M624.939 184.574C624.794 184.574 624.649 184.58 624.504 184.58C624.781 182.218 624.939 179.812 624.939 177.368C624.939 154.618 612.565 134.765 594.168 124.102V447.087H686.658C686.658 265.849 686.658 249.857 686.665 246.752C686.665 246.494 686.665 246.317 686.665 246.147C686.665 212.142 659.025 184.574 624.939 184.574V184.574Z" fill="#93CC4A"/>
<path d="M629.402 334.03C629.402 419.632 559.848 489.022 474.043 489.022C388.239 489.022 318.679 419.632 318.679 334.03C318.679 248.427 388.239 179.031 474.043 179.031C559.848 179.031 629.402 248.427 629.402 334.03V334.03Z" fill="#F3C623"/>
<path d="M476.481 300.031C476.481 226.767 437.187 167.379 388.713 167.379C340.239 167.379 300.945 226.767 300.945 300.031C300.945 373.288 340.239 432.676 388.713 432.676C437.187 432.676 476.481 373.288 476.481 300.031Z" fill="#ED3500"/>
<path d="M388.713 167.379C386.895 167.379 385.083 167.492 383.29 167.656V432.399C385.083 432.563 386.895 432.676 388.713 432.676C437.187 432.676 476.481 373.288 476.481 300.031C476.481 226.767 437.187 167.379 388.713 167.379Z" fill="#B70F0F"/>
<path d="M649.573 378.364C649.573 305.101 610.279 245.712 561.805 245.712C513.331 245.712 474.037 305.101 474.037 378.364C474.037 451.622 513.331 511.01 561.805 511.01C610.279 511.01 649.573 451.622 649.573 378.364Z" fill="#ED3500"/>
<path d="M561.806 245.712C559.868 245.712 557.949 245.845 556.042 246.034V510.695C557.949 510.884 559.868 511.01 561.806 511.01C610.28 511.01 649.574 451.622 649.574 378.364C649.574 305.101 610.28 245.712 561.806 245.712Z" fill="#B70F0F"/>
<path d="M611.107 868.183C652.838 868.183 686.665 837.296 686.665 799.203V270.44C468.697 355.482 313.705 569.277 265.433 785.081C255.837 827.974 291.444 868.183 339.394 868.183H611.107Z" fill="#DD7631"/>
<path d="M686.663 270.44C654.402 283.031 623.53 298.456 594.167 316.274V799.203C594.167 837.302 560.34 868.183 518.615 868.183H611.105C652.837 868.183 686.663 837.302 686.663 799.203V270.44Z" fill="#DD7631"/>
<path d="M611.106 868.183C652.837 868.183 686.664 837.295 686.664 799.202V665.454C686.664 503.307 560.713 348.831 405.474 319.152C380.524 314.384 356.028 307.859 332.429 299.067C310.377 290.853 282.396 267.259 249.503 250.707V799.202C249.503 837.295 283.33 868.183 325.055 868.183H611.106Z" fill="#F3C623"/>
<path d="M594.167 799.202C594.167 837.295 560.34 868.183 518.615 868.183H611.105C652.837 868.183 686.663 837.295 686.663 799.202V665.454C686.663 579.14 650.968 495.005 594.167 430.704V799.202Z" fill="#DD7631"/>
<path d="M698.779 246.147C698.779 209.61 671.979 179.194 636.952 173.456C634.907 134.645 602.614 103.695 563.213 103.695C555.271 103.695 547.486 104.948 540.011 107.423C532.536 104.948 524.752 103.695 516.81 103.695C512.687 103.695 508.609 104.035 504.587 104.702C494.574 75.4587 466.543 54.7241 434.673 54.7241C405.518 54.7241 379.394 71.9063 367.537 97.7048C363.15 96.8986 358.686 96.4955 354.178 96.4955C313.464 96.4955 280.331 129.544 280.331 170.169C280.331 173.116 280.515 176.064 280.868 178.993C254.794 190.746 237.382 216.954 237.382 246.147C237.382 246.947 237.464 247.728 237.615 248.49C237.477 249.214 237.382 249.951 237.382 250.713V321.552C237.382 328.235 242.811 333.645 249.503 333.645C256.196 333.645 261.619 328.229 261.619 321.552V271.202C269.984 276.178 278.04 281.412 285.944 286.539C297.043 293.751 307.075 300.257 316.564 305.164C316.665 305.214 316.759 305.264 316.86 305.315C318.066 305.932 319.259 306.53 320.446 307.091C320.509 307.122 320.573 307.154 320.636 307.185C321.785 307.727 322.921 308.237 324.051 308.722C324.304 308.836 324.556 308.936 324.809 309.043C325.939 309.522 327.063 309.976 328.186 310.398C333.035 312.205 338.01 313.925 343.048 315.581C346.091 316.583 349.159 317.559 352.272 318.51C353.181 318.787 354.077 319.077 354.993 319.354C356.262 319.732 357.556 320.085 358.838 320.456C360.656 320.979 362.468 321.514 364.305 322.018C364.728 322.138 365.164 322.245 365.593 322.358C377.727 325.659 390.278 328.569 403.189 331.038C405.758 331.529 408.322 332.058 410.878 332.625C411.522 332.77 412.166 332.921 412.81 333.072C414.755 333.513 416.699 333.973 418.638 334.458C419.345 334.634 420.039 334.817 420.74 334.999C422.672 335.497 424.604 336.013 426.529 336.555C427.161 336.731 427.786 336.908 428.411 337.084C430.507 337.689 432.596 338.319 434.686 338.967C435.128 339.106 435.564 339.238 436.006 339.377C443.746 341.833 451.442 344.63 459.068 347.754C459.605 347.974 460.141 348.201 460.678 348.428C462.559 349.209 464.441 350.015 466.322 350.84C520.162 374.541 567.828 413.806 603.915 462.02C603.984 462.109 604.047 462.203 604.117 462.291C606.339 465.27 608.511 468.294 610.645 471.336C611.472 472.514 612.299 473.691 613.107 474.882C613.871 475.997 614.622 477.118 615.367 478.239C616.863 480.481 618.347 482.73 619.793 485.004C619.932 485.23 620.083 485.451 620.228 485.677C650.918 534.22 669.952 589.344 673.81 644.682V644.707C674.024 647.787 674.176 650.861 674.29 653.935C674.321 654.64 674.346 655.339 674.372 656.045C674.473 659.181 674.536 662.318 674.536 665.454V699C674.536 705.683 679.965 711.093 686.657 711.093C693.349 711.093 698.773 705.683 698.773 699V270.44C698.773 270.409 698.773 270.383 698.773 270.352L698.779 246.147ZM462.932 323.202C449.415 317.956 435.646 313.629 421.687 310.284C421.434 310.228 421.188 310.171 420.936 310.114C418.89 309.629 416.838 309.157 414.78 308.71C413.151 308.357 411.522 308.036 409.894 307.714C409.18 307.576 408.467 307.418 407.753 307.28C389.773 303.841 372.55 299.526 356.281 294.425C355.321 294.129 354.343 293.839 353.389 293.53C353.358 293.518 353.32 293.511 353.288 293.499C347.625 291.672 342.076 289.751 336.665 287.736C336.653 287.729 336.627 287.723 336.608 287.711C335.87 287.44 335.118 287.131 334.355 286.816C334.108 286.715 333.862 286.602 333.616 286.495C333.054 286.256 332.492 286.004 331.918 285.739C331.652 285.613 331.381 285.487 331.11 285.361C330.51 285.078 329.91 284.782 329.304 284.479C329.07 284.366 328.843 284.253 328.609 284.133C327.782 283.717 326.955 283.283 326.109 282.835C325.926 282.735 325.737 282.628 325.554 282.527C324.891 282.168 324.228 281.809 323.559 281.431C323.199 281.229 322.839 281.028 322.479 280.82C321.968 280.53 321.456 280.234 320.939 279.938C320.56 279.711 320.175 279.491 319.79 279.264C319.253 278.949 318.723 278.628 318.186 278.307C317.845 278.105 317.511 277.904 317.17 277.702C316.317 277.186 315.459 276.663 314.6 276.134C321.715 220.531 352.79 179.471 388.712 179.471C400.96 179.471 412.88 184.296 423.612 193.353C423.928 193.662 424.263 193.952 424.61 194.229C430.361 199.255 435.759 205.484 440.658 212.891C455.943 235.988 464.359 266.932 464.359 300.024C464.359 307.84 463.885 315.588 462.932 323.202ZM460.893 199.57C459.22 197.044 457.49 194.619 455.716 192.295C461.777 191.527 467.894 191.124 474.037 191.124C503.4 191.124 531.608 199.916 555.624 216.55C563.68 222.125 571.054 228.461 577.715 235.421C572.512 234.243 567.197 233.619 561.805 233.619C538.957 233.619 516.702 244.875 499.145 265.301C495.029 270.094 491.216 275.296 487.724 280.864C484.978 250.31 475.704 221.955 460.893 199.57ZM529.657 345.808C527.195 347.697 524.733 349.593 522.29 351.52C521.873 351.848 521.456 352.156 521.046 352.484C511.292 346.362 501.317 340.756 491.146 335.686C502.302 289.392 530.554 257.805 561.805 257.805C581.105 257.805 599.565 269.798 613.663 291.118C613.278 291.326 612.905 291.546 612.52 291.754C609.193 293.574 605.872 295.42 602.57 297.309C601.869 297.706 601.175 298.109 600.474 298.512C597.28 300.352 594.091 302.222 590.922 304.124C590.221 304.54 589.527 304.962 588.832 305.378C585.6 307.337 582.38 309.321 579.173 311.342C578.579 311.714 577.986 312.079 577.399 312.451C573.971 314.624 570.555 316.841 567.152 319.083C566.805 319.316 566.452 319.537 566.111 319.77C554.816 327.259 543.692 335.144 532.751 343.433C531.716 344.214 530.693 345.014 529.657 345.808ZM674.542 539.158C664.352 512.956 651.05 487.58 634.875 463.595C634.8 463.488 634.73 463.381 634.661 463.274C632.817 460.553 630.949 457.845 629.029 455.155C628.935 455.023 628.846 454.884 628.745 454.752C626.965 452.252 625.14 449.77 623.29 447.301C622.413 446.129 621.516 444.977 620.626 443.818C619.711 442.621 618.789 441.424 617.855 440.24C616.75 438.829 615.632 437.425 614.509 436.027C614.231 435.687 613.972 435.346 613.694 435.013C613.233 434.439 612.76 433.892 612.299 433.325C611.08 431.845 609.862 430.364 608.625 428.903C607.993 428.16 607.356 427.436 606.724 426.699C604.685 424.33 602.627 421.987 600.537 419.67C599.338 418.341 598.144 417.012 596.932 415.708C596.124 414.832 595.31 413.969 594.489 413.107C592.898 411.419 591.294 409.749 589.685 408.093C589.205 407.608 588.731 407.117 588.251 406.632C573.75 391.937 558.295 378.61 542.076 366.762C542.347 366.548 542.619 366.347 542.89 366.139C544.936 364.564 546.981 363.009 549.033 361.459C550.233 360.559 551.438 359.67 552.644 358.782C553.781 357.938 554.923 357.094 556.066 356.257C557.461 355.236 558.863 354.222 560.264 353.215C561.174 352.566 562.083 351.917 562.992 351.275C564.551 350.16 566.123 349.051 567.695 347.955C568.289 347.54 568.895 347.13 569.495 346.714C577.677 341.058 585.953 335.61 594.319 330.401C594.641 330.2 594.963 329.998 595.285 329.797C597.292 328.55 599.306 327.315 601.326 326.1C601.636 325.911 601.945 325.722 602.254 325.533C611.005 320.267 619.843 315.241 628.758 310.473C628.935 310.379 629.105 310.284 629.282 310.19C631.372 309.075 633.468 307.973 635.564 306.889C648.392 300.238 661.385 294.078 674.542 288.46V539.158ZM674.536 262.277C661.297 267.663 648.197 273.552 635.267 279.932C633.341 276.902 631.346 274.005 629.269 271.253C617.009 241.096 596.377 215.335 569.45 196.685C541.356 177.223 508.363 166.938 474.037 166.938C460.874 166.938 447.799 168.474 435.084 171.498C421.018 160.897 405.228 155.285 388.712 155.285C363.402 155.285 339.348 168.783 320.983 193.284C307.125 211.764 297.232 235.622 292.339 261.849C282.85 255.733 272.585 249.309 261.732 243.458C262.894 222.402 277.446 204.124 297.983 198.461C301.09 197.605 303.722 195.551 305.307 192.749C306.892 189.952 307.296 186.639 306.424 183.547C305.2 179.169 304.575 174.672 304.575 170.169C304.575 142.877 326.829 120.682 354.178 120.682C359.949 120.682 365.612 121.664 371.003 123.604C374.185 124.744 377.702 124.511 380.707 122.955C383.712 121.393 385.922 118.654 386.806 115.397C392.652 93.9131 412.337 78.9039 434.673 78.9039C459.144 78.9039 480.237 97.0939 483.747 121.211C484.271 124.807 486.392 127.982 489.517 129.852C492.649 131.717 496.449 132.082 499.877 130.841C505.301 128.876 510.995 127.881 516.81 127.881C523.237 127.881 529.512 129.103 535.453 131.509C538.376 132.693 541.646 132.693 544.57 131.509C550.51 129.103 556.786 127.881 563.213 127.881C590.562 127.881 612.817 150.083 612.817 177.368C612.817 179.245 612.703 181.141 612.463 183.175C612.059 186.62 613.158 190.065 615.468 192.642C617.766 195.211 621.056 196.673 624.503 196.673C624.686 196.673 624.869 196.666 625.071 196.66C652.363 196.736 674.536 218.906 674.536 246.147V262.277Z" fill="black"/>
<path d="M686.664 743.184C679.965 743.184 674.542 748.6 674.542 755.277V799.202C674.542 830.568 646.088 856.09 611.106 856.09H325.055C290.079 856.09 261.625 830.568 261.625 799.202V377.753C261.625 371.071 256.196 365.66 249.503 365.66C242.811 365.66 237.382 371.071 237.382 377.753V799.202C237.382 843.902 276.714 880.276 325.061 880.276H611.106C659.453 880.276 698.785 843.902 698.785 799.202V755.277C698.779 748.6 693.356 743.184 686.664 743.184Z" fill="black"/>
</svg>
