<svg width="70" height="70" viewBox="0 0 70 70" fill="none" xmlns="http://www.w3.org/2000/svg">
<path d="M60.9163 30.7657L60.8075 29.9942C59.8419 23.1387 56.9075 16.6738 52.4155 11.4596C50.7884 9.57088 48.0505 9.10183 45.8928 10.3509L31.8305 18.4922C32.0019 19.62 31.6537 20.8116 30.7852 21.6806C29.4338 23.0316 27.3012 23.1242 25.8423 21.9588L12.5143 29.6752C10.9801 30.5635 10.0352 32.2024 10.0352 33.9751V46.2453C12.0873 46.2453 13.7508 47.9089 13.7508 49.961C13.7508 52.0131 12.0873 53.677 10.0352 53.677V54.2981C10.0352 57.0421 12.2595 59.2669 15.0039 59.2669H44.9826C44.9826 57.2148 46.6461 55.5512 48.6982 55.5512C50.7504 55.5512 52.4139 57.2148 52.4139 59.2669H55.9961C58.7405 59.2669 60.9648 57.0421 60.9648 54.2981V31.4588C60.9648 31.2267 60.9487 30.9954 60.9163 30.7657V30.7657Z" fill="#F3C623"/>
<path d="M44.0576 31.6067C44.0576 33.8933 42.2036 35.7473 39.917 35.7473C37.6299 35.7473 35.7764 33.8933 35.7764 31.6067C35.7764 29.32 37.6299 27.4661 39.917 27.4661C42.2036 27.4661 44.0576 29.32 44.0576 31.6067V31.6067Z" fill="#DD7631"/>
<path d="M35.4991 49.961C35.4991 52.0131 33.8355 53.6771 31.7834 53.6771C29.7309 53.6771 28.0674 52.0131 28.0674 49.961C28.0674 47.9089 29.7309 46.2454 31.7834 46.2454C33.8355 46.2454 35.4991 47.9089 35.4991 49.961Z" fill="#DD7631"/>
<path d="M53.1026 45.2325C53.1026 46.6558 51.949 47.8099 50.5256 47.8099C49.1023 47.8099 47.9482 46.6558 47.9482 45.2325C47.9482 43.8092 49.1023 42.6555 50.5256 42.6555C51.949 42.6555 53.1026 43.8092 53.1026 45.2325Z" fill="#DD7631"/>
<path d="M22.6912 39.6425C22.6912 40.9433 21.6367 41.9979 20.3359 41.9979C19.035 41.9979 17.9805 40.9433 17.9805 39.6425C17.9805 38.3417 19.035 37.2871 20.3359 37.2871C21.6367 37.2871 22.6912 38.3417 22.6912 39.6425V39.6425Z" fill="#DD7631"/>
<path d="M51.0963 18.1539C51.0963 19.4785 50.0223 20.5521 48.6981 20.5521C47.3738 20.5521 46.2998 19.4785 46.2998 18.1539C46.2998 16.8296 47.3738 15.7556 48.6981 15.7556C50.0223 15.7556 51.0963 16.8296 51.0963 18.1539V18.1539Z" fill="#DD7631"/>
<path d="M31.7844 45.2102C29.1646 45.2102 27.0332 47.3416 27.0332 49.961C27.0332 52.5808 29.1646 54.7122 31.7844 54.7122C34.4038 54.7122 36.5352 52.5808 36.5352 49.961C36.5352 47.3416 34.4038 45.2102 31.7844 45.2102V45.2102ZM31.7844 52.6419C30.3061 52.6419 29.1035 51.4393 29.1035 49.961C29.1035 48.4831 30.3061 47.2805 31.7844 47.2805C33.2623 47.2805 34.4649 48.4831 34.4649 49.961C34.4649 51.4393 33.2623 52.6419 31.7844 52.6419V52.6419Z" fill="black"/>
<path d="M50.5266 41.6204C48.5347 41.6204 46.9141 43.2406 46.9141 45.2325C46.9141 47.2244 48.5347 48.8446 50.5266 48.8446C52.5185 48.8446 54.1387 47.2244 54.1387 45.2325C54.1387 43.2406 52.5185 41.6204 50.5266 41.6204V41.6204ZM50.5266 46.7747C49.6762 46.7747 48.9844 46.0829 48.9844 45.2325C48.9844 44.3821 49.6762 43.6907 50.5266 43.6907C51.3766 43.6907 52.0684 44.3825 52.0684 45.2325C52.0684 46.0829 51.3766 46.7747 50.5266 46.7747Z" fill="black"/>
<path d="M20.3359 36.2517C18.4661 36.2517 16.9453 37.7729 16.9453 39.6427C16.9453 41.512 18.4661 43.0332 20.3359 43.0332C22.2052 43.0332 23.7264 41.512 23.7264 39.6427C23.7264 37.7729 22.2052 36.2517 20.3359 36.2517V36.2517ZM20.3359 40.9629C19.6076 40.9629 19.0156 40.3705 19.0156 39.6427C19.0156 38.9148 19.6076 38.3224 20.3359 38.3224C21.0641 38.3224 21.6561 38.9148 21.6561 39.6427C21.6561 40.3705 21.0637 40.9629 20.3359 40.9629Z" fill="black"/>
<path d="M48.6981 21.5873C50.5913 21.5873 52.1315 20.0471 52.1315 18.1539C52.1315 16.2607 50.5913 14.7205 48.6981 14.7205C46.8048 14.7205 45.2646 16.2607 45.2646 18.1539C45.2646 20.0471 46.8048 21.5873 48.6981 21.5873ZM48.6981 16.7908C49.4498 16.7908 50.0611 17.4022 50.0611 18.1539C50.0611 18.9056 49.4498 19.517 48.6981 19.517C47.9464 19.517 47.335 18.9056 47.335 18.1539C47.335 17.4022 47.9464 16.7908 48.6981 16.7908Z" fill="black"/>
<path d="M61.9414 30.6212L61.8326 29.8501C60.8363 22.7763 57.8513 16.1836 53.1996 10.7838C51.2481 8.51862 47.9571 7.95939 45.3744 9.45471L31.3121 17.596C30.9437 17.8095 30.7431 18.2264 30.807 18.6474C30.9368 19.501 30.6623 20.3396 30.0533 20.9486C29.0873 21.9146 27.5544 22.0011 26.4885 21.1499C26.1553 20.8839 25.6927 20.8491 25.3239 21.063L11.9959 28.7794C11.1152 29.2889 10.3942 30.0082 9.87988 30.8521C9.71814 31.0037 9.60573 31.2063 9.56772 31.4348C9.20056 32.2188 9 33.0846 9 33.975V46.2452C9 46.817 9.46339 47.2804 10.0352 47.2804C11.5131 47.2804 12.7156 48.4829 12.7156 49.9609C12.7156 51.4392 11.5131 52.6417 10.0352 52.6417C9.46339 52.6417 9 53.1051 9 53.6769V54.298C9 57.6085 11.6934 60.3019 15.0039 60.3019H44.9826C45.5544 60.3019 46.0178 59.8385 46.0178 59.2667C46.0178 57.7884 47.2203 56.5859 48.6982 56.5859C50.1762 56.5859 51.3787 57.7884 51.3787 59.2667C51.3787 59.8385 51.8421 60.3019 52.4139 60.3019H55.9961C59.3066 60.3019 62 57.6085 62 54.298V31.4586C62 31.1792 61.9802 30.8978 61.9414 30.6212ZM55.9961 58.2316H53.3358C52.8619 56.1079 50.9622 54.5155 48.6982 54.5155C46.4342 54.5155 44.5346 56.1079 44.0607 58.2316H15.0039C12.9352 58.2316 11.2341 56.6263 11.0816 54.5956C13.1993 54.1177 14.7864 52.2212 14.7864 49.9609C14.7864 47.6969 13.194 45.7972 11.0703 45.3237V33.975C11.0703 33.514 11.1536 33.064 11.3065 32.6418H18.3512C18.9225 32.6418 19.3863 32.1784 19.3863 31.6066C19.3863 31.0349 18.9225 30.5715 18.3512 30.5715H13.0323C13.0323 30.5711 13.0327 30.5711 13.0331 30.5711L25.8011 23.179C27.6328 24.2303 29.9797 23.9497 31.5171 22.4124C32.4071 21.5224 32.9024 20.3097 32.9077 19.0647L46.4116 11.2464C48.1334 10.2497 50.3286 10.6233 51.6311 12.1352C56.0232 17.2333 58.842 23.4588 59.7825 30.1384L59.8436 30.5715H36.9893C37.4167 29.3665 38.5671 28.5012 39.9168 28.5012C40.4886 28.5012 40.952 28.0378 40.952 27.466C40.952 26.8943 40.4886 26.4309 39.9168 26.4309C37.4171 26.4309 35.3261 28.2117 34.8449 30.5715H27.3223C26.7505 30.5715 26.2871 31.0349 26.2871 31.6066C26.2871 32.1784 26.7505 32.6418 27.3223 32.6418H34.8449C35.3261 35.0012 37.4171 36.7824 39.9168 36.7824C42.4161 36.7824 44.5075 35.0012 44.9883 32.6418H59.9297V54.298C59.9297 56.467 58.1651 58.2316 55.9961 58.2316V58.2316ZM42.8439 32.6418C42.4165 33.8468 41.2661 34.7121 39.9164 34.7121C38.5671 34.7121 37.4167 33.8468 36.9893 32.6418H42.8439Z" fill="black"/>
<path d="M22.9746 30.5715C22.7025 30.5715 22.4352 30.6823 22.2427 30.8748C22.0502 31.0673 21.9395 31.3346 21.9395 31.6067C21.9395 31.8788 22.0502 32.1461 22.2427 32.3386C22.4352 32.5311 22.7025 32.6418 22.9746 32.6418C23.2467 32.6418 23.514 32.5311 23.7065 32.3386C23.899 32.1461 24.0098 31.8788 24.0098 31.6067C24.0098 31.3346 23.899 31.0673 23.7065 30.8748C23.514 30.6823 23.2467 30.5715 22.9746 30.5715Z" fill="black"/>
</svg>
