<svg width="70" height="70" viewBox="0 0 70 70" fill="none" xmlns="http://www.w3.org/2000/svg">
<g clip-path="url(#clip0)">
<path d="M60.3342 59.0802C57.9977 60.2349 55.5529 61.1561 53.0358 61.8308H53.0258C50.8721 62.4018 48.6682 62.7639 46.4446 62.9111C43.9687 63.0574 41.4836 62.922 39.0383 62.5083C30.1975 61.0253 22.3688 56.1137 15.8759 50.1022C12.6256 47.24 9.95764 43.778 8.01749 39.9059C6.1578 35.7138 6.82707 30.8305 9.74643 27.2936C10.5259 26.2869 11.4457 25.3973 12.477 24.6512C9.70712 19.042 9.74643 16.1249 10.1588 13.8949C10.6854 11.057 12.3824 8.57143 14.8345 7.04866C15.2492 6.7762 15.6789 6.52659 16.1214 6.30213C16.5753 6.06853 17.086 5.96659 17.5948 6.00727C19.0289 6.16453 19.8837 6.63585 20.0405 7.68684C20.1553 8.68023 19.6044 9.6311 18.6851 10.0247C17.5312 10.5431 16.5004 11.2997 15.6597 12.2446C14.8432 13.5823 14.5264 15.1654 14.7659 16.7142C14.8674 17.7117 15.0581 18.6978 15.3356 19.661C15.4828 20.2109 15.6501 20.7513 15.8265 21.3017C15.9628 21.7876 16.1333 22.264 16.3376 22.7257L16.3472 22.7358C16.3669 22.7257 16.3769 22.7257 16.3966 22.7161C18.702 21.5751 21.3393 21.2962 23.8322 21.9303C24.2056 22.0382 24.6084 22.1461 25.0111 22.2837C25.3874 22.3925 25.7499 22.5438 26.0914 22.7358C26.8612 23.1719 27.6 23.661 28.3017 24.1991C28.3296 24.2165 28.3561 24.2361 28.3803 24.2581C35.0008 29.3169 39.3917 38.6976 40.9342 47.9216C41.1106 47.9901 41.2875 48.0592 41.4544 48.1277C41.4722 48.1954 41.4855 48.2644 41.4937 48.3339C43.8672 49.1838 46.1269 50.3221 48.2225 51.7228C48.2842 51.7529 48.3404 51.7927 48.3894 51.8407C49.5418 52.728 50.5009 53.8412 51.2086 55.1121C51.3069 55.102 51.4148 55.0924 51.5131 55.0824C51.6018 55.2296 51.69 55.3772 51.7686 55.5244C55.4619 55.2003 58.8805 55.1509 61.169 56.153L61.3167 56.2417L61.3263 56.2316C62.348 57.0765 62.3183 57.9999 60.3342 59.0802V59.0802Z" fill="#B70F0F"/>
<path d="M57.2005 60.0625C55.8469 60.7304 54.4567 61.3206 53.0358 61.8307H53.0258C50.8721 62.4017 48.6682 62.7638 46.4446 62.911C43.9687 63.0573 41.4836 62.922 39.0383 62.5082C30.1975 61.0252 22.3688 56.1136 15.8759 50.1021C12.6256 47.2399 9.95764 43.7779 8.01749 39.9058C6.1578 35.7137 6.82707 30.8305 9.74643 27.2935C10.5259 26.2868 11.4457 25.3972 12.477 24.6512C9.70712 19.0419 9.74643 16.1248 10.1588 13.8949C10.6854 11.0569 12.3824 8.57135 14.8345 7.04858C16.0428 7.2351 16.76 7.71648 16.9072 8.66918C17.022 9.66257 16.4707 10.6134 15.5518 11.007C14.3979 11.5255 13.3666 12.282 12.5264 13.227C11.7094 14.5646 11.3931 16.1477 11.6322 17.6965C11.7337 18.6936 11.9248 19.6801 12.2022 20.6433C12.3494 21.1933 12.5163 21.7336 12.6932 22.2836C12.8258 22.7755 13 23.2555 13.2139 23.7177C14.211 23.2623 15.2601 22.9291 16.3376 22.7256C16.3559 22.7179 16.376 22.7142 16.3966 22.716C17.8266 22.4527 19.2986 22.5199 20.6988 22.9122C21.0719 23.0205 21.4746 23.1284 21.8774 23.266C22.2541 23.3748 22.6166 23.5261 22.9581 23.7177C23.7279 24.1538 24.4662 24.6429 25.1684 25.1815C25.1963 25.1988 25.2223 25.2185 25.247 25.2404C31.8675 30.2993 36.2584 39.68 37.8004 48.9039C37.9773 48.9725 38.1542 49.041 38.3211 49.1101C38.3389 49.1777 38.3522 49.2468 38.3604 49.3163C40.7335 50.1661 42.9936 51.3039 45.0892 52.7051C45.1504 52.7353 45.2071 52.7751 45.2561 52.8231C46.4085 53.7104 47.3676 54.8235 48.0753 56.094C48.1736 56.0844 48.2815 56.0743 48.3798 56.0647C48.468 56.2119 48.5567 56.3591 48.6353 56.5068C52.3286 56.1827 55.7467 56.1333 58.0357 57.1354L58.1829 57.2236L58.193 57.214C59.2142 58.0588 59.185 58.9822 57.2005 60.0625V60.0625Z" fill="#ED3500"/>
<path d="M41.4541 48.1277C43.8679 49.0022 46.1463 50.2127 48.2222 51.7227C46.1266 50.322 43.8669 49.1837 41.4934 48.3339C41.4852 48.2644 41.4719 48.1953 41.4541 48.1277Z" fill="#B70F0F"/>
<path d="M61.3259 56.2316L61.3163 56.2416L61.1686 56.153C58.8801 55.1509 55.4616 55.2003 51.7682 55.5244C51.6896 55.3772 51.6014 55.2295 51.5127 55.0823C55.0885 54.7874 58.3791 54.7678 60.6091 55.7406C60.8623 55.8823 61.1023 56.0464 61.3259 56.2316V56.2316Z" fill="#B70F0F"/>
<path d="M64.0174 14.0913C60.3986 17.284 58.2737 21.84 58.153 26.6648C58.0643 30.4957 58.3002 34.621 57.102 38.3143C55.5793 43.049 50.3828 45.898 45.6189 46.1727C44.9332 45.6649 44.3498 45.0317 43.9 44.3067C43.7597 44.1064 43.6476 43.8884 43.5658 43.658L44.1354 43.6191C46.6996 42.7053 48.104 40.9864 49.2532 36.9589C47.9092 37.5075 46.5272 37.9573 45.1178 38.3047C44.5437 38.4419 43.9585 38.5306 43.3692 38.5699C42.94 38.6028 42.5084 38.5863 42.0828 38.521C42.0476 38.5214 42.0133 38.5114 41.9845 38.4912C41.9658 38.472 41.9521 38.4483 41.9452 38.4227C41.8273 38.1475 41.7587 37.843 41.6604 37.5678C41.5521 37.2931 41.4442 37.0083 41.3262 36.733C41.3066 36.6841 41.2869 36.6448 41.2673 36.5954C41.0122 35.9568 40.737 35.3282 40.4421 34.6996C40.4266 34.6654 40.4165 34.6292 40.4129 34.5918C40.3831 34.4148 40.619 34.12 40.7269 33.9728C40.8686 33.7821 41.0373 33.6135 41.228 33.4717C41.8067 33.0804 42.5112 32.919 43.2024 33.0201C51.4635 34.13 54.2727 31.1636 54.2727 26.0554C54.2727 25.9082 54.2631 25.761 54.2631 25.6037C53.3342 26.6863 52.1584 27.5283 50.835 28.0595C50.7367 28.0888 50.6288 28.1185 50.5305 28.1478C49.2304 28.3325 47.9046 28.1418 46.7092 27.5978C45.5503 27.2051 44.3654 26.8933 43.1631 26.6648C41.617 26.4435 40.0485 26.4239 38.4974 26.6058C37.9049 26.6415 37.3111 26.6383 36.7195 26.5957C36.2994 26.5487 35.8829 26.4764 35.472 26.3795C35.4345 26.3758 35.3979 26.3658 35.3636 26.3502C35.2365 26.2492 35.1328 26.1217 35.0592 25.9768C34.9316 25.8296 34.8041 25.6723 34.6665 25.5155C34.4896 25.2993 34.303 25.0931 34.1161 24.8865C33.9003 24.6606 33.6841 24.4348 33.4582 24.209C33.3403 24.0714 33.2027 23.9338 33.0555 23.7866C32.9768 22.5093 34.4306 21.0359 35.6781 19.4839C33.9213 18.9101 31.9908 19.3522 30.6586 20.6331C30.3171 20.9673 29.7887 21.0167 29.3914 20.7511C28.8707 20.3977 28.3404 20.0635 27.7905 19.7495C27.486 19.5757 27.171 19.4217 26.8474 19.2877C26.7335 19.2434 26.6302 19.1766 26.5429 19.0912C26.5329 19.0912 26.5329 19.0912 26.5329 19.0811C26.2293 18.8059 26.131 18.3698 26.2874 17.9908C28.6449 11.9596 35.6877 9.05213 45.2751 11.6158C46.5327 11.9441 47.7693 12.3477 48.9785 12.8241C45.1082 15.4372 44.5286 18.1581 45.5403 19.8669C46.9254 22.1852 51.2377 22.6373 54.3025 18.4822C55.3699 16.8379 56.926 15.5702 58.7519 14.8575C60.4703 14.3935 62.2381 14.1366 64.0174 14.0913V14.0913Z" fill="#DD7631"/>
<path d="M58.7519 14.8575C56.5 17.7417 55.2419 21.2773 55.1669 24.9358C55.1569 25.3089 55.1569 25.6824 55.1473 26.0654C55.1079 29.5722 55.1962 33.2555 54.1155 36.5859C52.7308 40.8982 48.2909 43.6484 43.9 44.3067C43.7596 44.1064 43.6476 43.8884 43.5658 43.658L44.1354 43.6191C46.6996 42.7053 48.1039 40.9864 49.2532 36.9589C47.9092 37.5075 46.5272 37.9573 45.1178 38.3047C45.5402 37.47 48.8898 37.6762 49.2436 36.4482C47.618 36.9507 41.7409 33.6633 41.3262 36.7331C41.3066 36.6841 41.2869 36.6448 41.2673 36.5955C41.0122 35.9568 40.737 35.3282 40.4421 34.6996C40.4266 34.6654 40.4165 34.6292 40.4128 34.5918C40.3831 34.4148 40.619 34.12 40.7269 33.9728C40.8686 33.7821 41.0373 33.6135 41.2279 33.4717C41.8067 33.0804 42.5112 32.919 43.2024 33.0201C51.4635 34.13 54.2727 31.1636 54.2727 26.0554C54.2727 25.9082 54.2631 25.761 54.2631 25.6037C53.3342 26.6863 52.1584 27.5283 50.835 28.0595C50.7367 28.0888 50.6288 28.1185 50.5305 28.1478C51.1097 26.9692 49.2925 29.2577 49.2436 27.6074C48.2713 28.6095 48.6347 27.1654 47.2788 27.6074C45.8447 28.0792 45.0886 26.321 43.7231 25.8689C42.5637 25.4766 41.3793 25.1649 40.177 24.9358C38.6309 24.7146 37.0624 24.6949 35.5113 24.8769C35.0468 24.9047 34.581 24.9079 34.1161 24.8865C33.9003 24.6606 33.6841 24.4348 33.4582 24.209C33.3403 24.0714 33.2027 23.9338 33.0555 23.7866C32.9768 22.5093 34.4306 21.0359 35.6781 19.4839C33.9213 18.9101 31.9908 19.3522 30.6586 20.6331C30.5809 20.7095 30.4913 20.7726 30.3935 20.8201C30.8749 19.8573 34.6272 19.8377 35.4916 18.767C32.5448 16.8022 28.8021 17.8143 27.6725 18.9046C27.369 19.1913 26.9223 19.2649 26.5429 19.0912C26.5329 19.0912 26.5329 19.0912 26.5329 19.0811C26.2293 18.8059 26.131 18.3698 26.2874 17.9908C28.6449 11.9596 35.6877 9.05213 45.2751 11.6158C40.0983 15.545 42.0924 19.5625 45.5402 19.8669C46.9254 22.1852 51.2377 22.6373 54.3024 18.4822C55.3699 16.8379 56.926 15.5702 58.7519 14.8575V14.8575Z" fill="#F3C623"/>
<path d="M24.8046 31.4683C24.112 31.4052 23.4276 31.2735 22.7611 31.0751C19.343 30.1028 18.5471 27.8339 17.3978 27.775C17.1327 28.2952 16.8675 28.8259 16.5827 29.3366C14.4414 33.2754 11.848 36.5074 10.5611 33.8061C10.0308 32.7254 9.72636 30.6628 9.74601 27.2936V27.2835C10.5282 26.2824 11.4475 25.3964 12.4766 24.6512C9.7067 19.042 9.74601 16.1249 10.1584 13.8949C10.7847 10.5747 12.9762 7.76136 16.0423 6.34145C16.0675 6.32636 16.094 6.31311 16.121 6.30213C16.5749 6.06853 17.0856 5.96659 17.5944 6.00727C19.0285 6.16453 19.8833 6.63585 20.0401 7.68684C20.1549 8.68023 19.604 9.6311 18.6847 10.0247C17.5308 10.5431 16.5 11.2997 15.6593 12.2446C14.8428 13.5823 14.526 15.1654 14.7655 16.7142C14.867 17.7117 15.0576 18.6978 15.3351 19.661C15.4823 20.2109 15.6497 20.7513 15.8261 21.3017C15.8458 21.3506 15.9148 21.5865 16.003 21.8517C16.0748 22.1611 16.1905 22.4587 16.3468 22.7358C17.4389 22.2306 18.596 21.88 19.785 21.6944C21.1355 21.4836 22.5151 21.5641 23.8317 21.9303C24.2052 22.0382 24.5979 22.1461 25.0007 22.2837C23.4587 24.6215 23.7632 27.1852 25.7275 29.9359C25.9461 30.2532 25.9589 30.6692 25.76 30.9997C25.5607 31.3298 25.1872 31.5131 24.8046 31.4683Z" fill="#3C663B"/>
<path d="M22.7606 31.075C19.3425 30.1026 18.5466 27.8338 17.3973 27.7748C17.1321 28.295 16.867 28.8258 16.5822 29.3364C15.6295 28.541 17.2204 29.3662 16.5822 29.3364C15.4032 31.7136 12.2306 34.1891 10.9341 35.4659C10.0906 32.8259 9.68881 30.0642 9.74549 27.2934V27.2834C10.5277 26.2822 11.447 25.3963 12.4761 24.6511C9.70618 19.0419 9.74549 16.1248 10.1578 13.8948C10.7841 10.5745 12.9757 7.76122 16.0418 6.34131C16.6119 6.56348 17.0151 7.07961 17.0928 7.6867C17.2076 8.68009 16.6562 9.63096 15.7374 10.0246C14.5835 10.543 13.5526 11.2996 12.7119 12.2445C11.8955 13.5821 11.5787 15.1652 11.8182 16.7141C11.9197 17.7116 12.1103 18.6976 12.3878 19.6608C12.535 20.2108 12.7019 20.7512 12.8788 21.3016C13.0114 21.7935 13.1856 22.273 13.3995 22.7356C14.2343 22.3521 15.107 22.0559 16.0025 21.8515C17.2409 21.5535 18.5255 21.5004 19.7845 21.6943C20.1566 21.7445 20.5242 21.8232 20.8844 21.9301C21.2579 22.038 21.6506 22.1459 22.0534 22.2835C20.5114 24.6214 20.8159 27.1851 22.7802 29.9358C23.0257 30.2782 23.0175 30.7413 22.7606 31.075V31.075Z" fill="#2D8D52"/>
<path d="M39.6957 41.1045C40.4592 43.3976 41.0466 45.7455 41.4539 48.1277C41.2871 48.0591 41.1102 47.9901 40.9337 47.9215C39.3913 38.6976 35.0003 29.3169 28.3799 24.2581C33.5466 27.9418 37.3972 34.2185 39.6957 41.1045V41.1045Z" fill="#ED3500"/>
<path d="M51.5124 55.0823C51.4141 55.0923 51.3062 55.1019 51.2079 55.112C50.5003 53.8411 49.5412 52.7279 48.3887 51.8406C49.6381 52.6996 50.7005 53.8022 51.5124 55.0823V55.0823Z" fill="#ED3500"/>
<path d="M30.1074 22.2347C29.8989 22.2347 29.6955 22.168 29.5277 22.0445C28.8132 21.5229 28.0699 21.0411 27.3019 20.6018C26.7743 20.311 26.2184 20.0747 25.6429 19.8959C25.306 19.788 25.0531 19.5073 24.9809 19.1613C24.9082 18.8152 25.0275 18.4568 25.2932 18.2227C25.5588 17.9891 25.9295 17.9165 26.2637 18.0321C26.965 18.2511 27.642 18.5423 28.2834 18.9002C29.114 19.3748 29.9172 19.8955 30.6894 20.46C31.0322 20.711 31.1749 21.1544 31.0423 21.5586C30.9097 21.9622 30.5326 22.2352 30.1074 22.2347Z" fill="black"/>
<path d="M44.5169 63.9513C42.6262 63.9509 40.7386 63.7927 38.8743 63.4772C30.7713 62.1186 22.8087 57.8607 15.2086 50.8238C11.8581 47.882 9.11384 44.3149 7.12798 40.323C5.11834 35.7959 5.83104 30.5226 8.97029 26.6913C9.63819 25.8309 10.4012 25.0483 11.2442 24.3589C8.71703 18.9919 8.75726 16.0698 9.19247 13.7169C9.88551 10.0693 12.2997 6.98168 15.6721 5.42919C16.2948 5.11056 16.9933 4.9725 17.69 5.0301C19.6813 5.24862 20.7949 6.09298 21.0116 7.54214C21.1959 8.96799 20.4146 10.344 19.0962 10.9173C18.085 11.3685 17.1793 12.0259 16.4369 12.8474C15.7759 13.987 15.5304 15.3206 15.743 16.6212C15.839 17.562 16.0191 18.4923 16.2815 19.4011C16.4269 19.9419 16.5892 20.4667 16.7611 21.0016L16.7592 20.9952C16.7597 20.9952 16.8054 21.1332 16.8607 21.3115C16.8721 21.3472 16.8859 21.3933 16.9028 21.4455C19.1881 20.5133 21.7152 20.3515 24.1006 20.9856L24.3639 21.0615C24.6762 21.1501 25.0021 21.2439 25.3281 21.3549C25.7687 21.4839 26.1934 21.664 26.5921 21.8916C35.3639 26.8778 40.1777 38.131 41.8065 47.2086C45.4335 48.64 49.6297 50.6994 51.7459 54.0814C54.988 53.8231 58.5227 53.7564 61.0022 54.8417C61.0365 54.8568 61.0699 54.8737 61.1024 54.8929C61.5696 55.1644 62.9899 55.9914 62.9717 57.3478C62.952 58.7723 61.3351 59.6541 60.8038 59.9439L60.7668 59.9636C56.3201 62.2041 51.4729 63.5394 46.506 63.8923C45.8441 63.9317 45.1812 63.9513 44.5169 63.9513V63.9513ZM17.3631 6.97848C17.0833 6.98442 16.8091 7.05391 16.5604 7.18191C13.7219 8.4633 11.689 11.0512 11.1162 14.1123C10.7317 16.1978 10.7303 18.8968 13.3571 24.2172C13.5701 24.6478 13.4403 25.1694 13.0499 25.4496C12.0945 26.1409 11.2428 26.9651 10.5209 27.8977C8.39337 30.6346 6.8514 35.1175 8.90629 39.4887C10.7861 43.2506 13.38 46.6107 16.5434 49.3819C23.8583 56.1546 31.4808 60.2452 39.2007 61.5403C41.5734 61.9412 43.9839 62.0724 46.3862 61.9316C51.0867 61.5947 55.6732 60.3293 59.8818 58.2086C60.8706 57.6664 61 57.3345 61.0082 57.3103C61.0009 57.3103 60.903 57.057 60.1643 56.6186C57.9105 55.6586 54.2446 55.8305 51.2947 56.0906C50.9029 56.1217 50.5298 55.9192 50.342 55.574C48.5737 52.2533 44.1969 50.2304 40.5813 48.8384C40.2568 48.7136 40.0227 48.4265 39.9656 48.0836C38.1077 36.9547 32.6059 27.569 25.606 23.59C25.3262 23.4345 25.0295 23.3111 24.7219 23.2233C24.4 23.1136 24.107 23.0309 23.8263 22.9509L23.5584 22.8741C21.2708 22.3031 18.8543 22.5723 16.7492 23.6329C16.6225 23.6892 16.4858 23.7184 16.3473 23.7184C15.5514 23.7184 15.3622 23.1086 14.985 21.8935L14.9082 21.6498C14.7098 21.0372 14.5379 20.4809 14.3871 19.9158C14.0945 18.8982 13.8938 17.8559 13.7877 16.8022C13.5176 15.0234 13.8961 13.2067 14.8538 11.6835C14.8735 11.6565 14.8936 11.6295 14.9155 11.6039C15.8468 10.5557 16.9883 9.71498 18.266 9.13714C18.7862 8.92548 19.1113 8.40296 19.071 7.84295C19.0335 7.59289 18.9663 7.14625 17.4879 6.98442C17.4472 6.9803 17.4052 6.97802 17.3631 6.97802V6.97848Z" fill="black"/>
<path d="M25.0079 53.0897C24.8036 53.0897 24.6043 53.0261 24.4378 52.9073C21.3 50.6718 18.3925 48.1291 15.7584 45.3167C15.3991 44.9181 15.4265 44.3051 15.8196 43.9398C16.2128 43.5741 16.8263 43.5919 17.1975 43.9796C19.7411 46.6946 22.5489 49.1495 25.5794 51.3077C25.9272 51.5559 26.0749 52.0003 25.9442 52.4072C25.8139 52.814 25.4349 53.0897 25.0079 53.0892V53.0897Z" fill="black"/>
<path d="M37.282 58.9042C37.2015 58.9047 37.1215 58.8946 37.0438 58.8749C34.6191 58.2605 32.267 57.3878 30.0279 56.2719C29.5493 56.0273 29.3559 55.4436 29.5941 54.9617C29.8318 54.4799 30.4133 54.2787 30.8983 54.5105C33.0108 55.5638 35.2308 56.3876 37.5188 56.9686C37.9993 57.0893 38.3151 57.5487 38.2548 58.0406C38.1949 58.5325 37.778 58.9024 37.2824 58.9037L37.282 58.9042Z" fill="black"/>
<path d="M11.7579 35.7696C11.6066 35.77 11.4557 35.7522 11.3081 35.7175C9.52015 35.2928 8.73797 32.6902 8.77362 27.2794L10.7188 27.2922C10.6795 33.2991 11.7465 33.8221 11.7574 33.8253C12.205 33.9195 14.0011 32.4379 16.5214 27.3457C16.6901 26.9955 17.054 26.7825 17.4421 26.8062C18.2412 26.9402 18.9644 27.3603 19.4755 27.9889C20.9133 29.4856 22.863 30.383 24.9348 30.5018C22.1745 26.6083 22.9412 23.6318 24.1979 21.7378L25.8189 22.8135C24.2742 25.1413 24.9014 27.7758 27.7358 30.8662C27.9922 31.1455 28.0626 31.5487 27.9168 31.8984C27.771 32.2481 27.435 32.4818 27.0564 32.4959C21.647 32.7026 19.4517 30.639 18.142 29.4047C18.0405 29.3096 17.9258 29.2017 17.8138 29.1002C15.5134 33.5309 13.4804 35.7696 11.7579 35.7696Z" fill="black"/>
<path d="M45.6188 47.1554C45.4762 47.1554 45.3349 47.1243 45.2055 47.0639C44.0531 46.2795 43.1525 45.1782 42.6112 43.8931C42.5422 43.6115 42.6007 43.3139 42.7717 43.0794C42.9426 42.8449 43.2082 42.6982 43.4981 42.6785L43.9296 42.6488C45.4899 42.0677 46.6689 41.1269 47.6741 38.5893C46.31 39.1013 44.8828 39.4245 43.4313 39.5502C42.9344 39.5831 42.4352 39.5658 41.9419 39.4976C41.7275 39.4615 41.5255 39.3742 41.3518 39.2435C41.2142 39.1255 41.1067 38.9765 41.0386 38.8083C40.96 38.6176 40.9019 38.4325 40.8461 38.2469C40.8123 38.1363 40.7794 38.0252 40.7378 37.9173C40.6162 37.5964 40.4905 37.2796 40.3616 36.9632C40.106 36.3396 39.8345 35.7225 39.5538 35.1095C39.4966 34.9911 39.4578 34.8644 39.4381 34.7341C39.4139 34.2464 39.5872 33.7691 39.9186 33.4102C40.1243 33.1318 40.3707 32.8863 40.6491 32.6811C41.4308 32.1366 42.3904 31.9099 43.333 32.047C47.3144 32.5796 50.113 32.1476 51.65 30.7601C52.439 30.0118 52.957 29.0225 53.1225 27.9477C52.5209 28.3994 51.8516 28.7528 51.1393 28.9942C49.6129 29.375 48.0024 29.2319 46.5674 28.5873L46.4005 28.5315C45.2855 28.153 44.1454 27.8527 42.9888 27.6328C41.5264 27.4275 40.0434 27.412 38.5769 27.5857C37.9364 27.6259 37.2932 27.6232 36.6527 27.5765C36.2961 27.5459 35.9418 27.4897 35.5926 27.4088L35.2872 27.3466C35.1565 27.3246 35.0298 27.283 34.9114 27.2236C34.6636 27.086 34.4579 26.8839 34.3153 26.6389C34.1686 26.4483 34.046 26.2997 33.9212 26.153C33.5724 25.7443 33.1825 25.3237 32.7633 24.9045C32.6097 24.7294 32.4885 24.6105 32.3605 24.4821C32.1914 24.3129 32.0894 24.0871 32.0748 23.848C31.998 22.6032 32.8081 21.4375 33.7877 20.2333C32.6376 20.3312 31.5847 20.9163 30.8949 21.8416C30.5722 22.2731 29.9619 22.3641 29.5276 22.0455C28.8135 21.5229 28.0702 21.0416 27.3022 20.6027C26.7741 20.3115 26.2183 20.0752 25.6427 19.8964C25.1412 19.7295 24.8614 19.1947 25.0109 18.6872C25.9362 15.431 28.2178 12.7297 31.2739 11.2723C35.9464 8.97371 42.3602 9.20091 49.3341 11.9095C49.6742 12.0421 49.9128 12.3525 49.9535 12.7155C49.9946 13.0785 49.8305 13.4337 49.5283 13.6385C47.1141 15.2714 45.8419 17.1503 46.1249 18.6648C46.3443 19.639 47.1338 20.3824 48.1194 20.5428C49.5453 20.8674 51.7067 20.3462 53.5115 17.8996C56.6192 13.6883 59.4467 13.473 62.4406 13.2449C62.9178 13.2083 63.4061 13.1713 63.9098 13.1159C64.3304 13.0693 64.7341 13.2979 64.9105 13.6828C65.087 14.0682 64.9969 14.5226 64.6865 14.8115C61.2497 17.8173 59.2346 22.1296 59.1344 26.6942C59.1184 27.3905 59.1134 28.1041 59.1079 28.8227C59.0842 32.0872 59.0595 35.4633 58.0359 38.6181C56.2754 44.0934 50.3937 46.8815 45.6755 47.154C45.6567 47.1549 45.6375 47.1554 45.6188 47.1554ZM45.0958 44.295C45.3372 44.6063 45.6028 44.8989 45.8899 45.1691C50.0189 44.817 54.7906 42.2927 56.1666 38.0137C57.0969 35.1451 57.1207 31.9236 57.1436 28.8086C57.1486 28.0794 57.1541 27.3557 57.1705 26.6421C57.262 22.4697 58.798 18.4582 61.5167 15.2915C59.1875 15.5178 57.3319 16.0298 55.0923 19.0653C52.7229 22.2763 49.708 22.9209 47.6801 22.4569C45.9315 22.1214 44.5564 20.7673 44.1929 19.0242C43.8313 17.0854 44.827 14.9999 46.9564 13.1384C41.1643 11.2055 35.9514 11.1593 32.1411 13.0346C29.87 14.1157 28.0994 16.0248 27.192 18.3704C27.5678 18.5213 27.9321 18.6982 28.2832 18.9003C28.8583 19.2294 29.4192 19.5791 29.9573 19.9439C31.5404 18.397 33.8522 17.8571 35.9574 18.5428C36.271 18.636 36.5178 18.8792 36.6152 19.1915C36.7126 19.5042 36.6481 19.8443 36.4433 20.0994C36.233 20.3609 36.0173 20.6201 35.8033 20.877C35.0856 21.6212 34.5004 22.482 34.0721 23.4224C34.1178 23.4718 34.1622 23.5207 34.2038 23.5701C34.6088 23.9705 35.0339 24.4295 35.4166 24.8789C35.5542 25.0403 35.6886 25.203 35.8202 25.3667C35.844 25.3959 35.8687 25.4288 35.8929 25.465L35.9953 25.4855C36.255 25.5472 36.5183 25.5911 36.7844 25.6163C37.332 25.6565 37.882 25.6597 38.4301 25.6263C40.0612 25.438 41.7097 25.4622 43.3344 25.6976C44.5824 25.934 45.8122 26.2572 47.0149 26.665L47.1864 26.7221C48.2259 27.2186 49.3994 27.3608 50.5277 27.1267C51.671 26.6604 52.6863 25.9276 53.4891 24.9886C53.5042 24.9731 53.5202 24.9575 53.5362 24.9433L53.5682 24.9095C53.8452 24.6325 54.2603 24.5465 54.6242 24.691C54.9885 24.8355 55.2322 25.1824 55.2446 25.5738C55.3374 28.5768 54.5927 30.7501 52.9666 32.2184C50.9528 34.0356 47.7144 34.6153 43.0716 33.9945C42.6309 33.9245 42.1792 34.0224 41.8071 34.2688C41.6932 34.352 41.5927 34.4521 41.5081 34.565L41.4807 34.6011C41.7243 35.1415 41.9579 35.6777 42.1801 36.2203C42.315 36.5513 42.4457 36.8837 42.5728 37.2174C42.6203 37.3413 42.6615 37.4684 42.7008 37.5959C42.9029 37.605 43.1054 37.6028 43.307 37.589C45.1626 37.3655 46.9752 36.8713 48.6876 36.123L48.9057 36.0407C49.2531 35.9095 49.6445 35.9854 49.9178 36.2368C50.1908 36.4882 50.2986 36.8722 50.1972 37.2293C49.0817 41.1388 47.6225 43.1869 45.0958 44.2945V44.295Z" fill="black"/>
<path d="M33.0557 24.7742C32.7955 24.7751 32.5459 24.6727 32.3617 24.4894C32.177 24.3056 32.0737 24.0565 32.0732 23.7968V23.7868C32.076 23.245 32.5171 22.808 33.0589 22.8098C33.601 22.8116 34.039 23.2519 34.0381 23.7936C34.0367 24.3353 33.5974 24.7742 33.0557 24.7742Z" fill="black"/>
<path d="M25.9443 19.9754C25.4017 19.9754 24.9619 19.5356 24.9619 18.993C24.9628 18.8815 24.982 18.7713 25.0181 18.6661C25.1649 18.2044 25.6262 17.9187 26.1048 17.9932C26.5834 18.0673 26.9364 18.4792 26.9364 18.9637C26.9354 19.0748 26.9167 19.1855 26.8806 19.2906C26.7507 19.6984 26.3722 19.9754 25.9443 19.9754Z" fill="black"/>
</g>
<defs>
<clipPath id="clip0">
<rect width="59" height="59" fill="white" transform="translate(6 5)"/>
</clipPath>
</defs>
</svg>
