<svg width="936" height="935" viewBox="0 0 936 935" fill="none" xmlns="http://www.w3.org/2000/svg">
<path fill-rule="evenodd" clip-rule="evenodd" d="M281.433 426.418H89.011V493.304C89.011 509.841 102.499 523.348 119.013 523.348H188.226L229.512 544.215L281.433 523.348V426.418Z" fill="#F3C623"/>
<path fill-rule="evenodd" clip-rule="evenodd" d="M281.433 523.348H188.227V566.251C188.227 576.554 196.657 584.952 206.903 584.952H510.37C510.37 557.981 510.37 544.258 489.749 544.258L448.68 544.215C422.828 544.172 405.881 537.548 396.413 523.348H281.433Z" fill="#8B5E5E"/>
<path fill-rule="evenodd" clip-rule="evenodd" d="M473.766 584.952H206.9C191.251 612.226 178.67 644.997 189.521 707.683C207.679 645.863 392.102 670.538 411.037 741.884H614.527C622.222 724.437 629.485 707.207 635.84 689.804H578.472C462.441 645.994 499.749 665.518 473.766 584.952Z" fill="#F3C623"/>
<path fill-rule="evenodd" clip-rule="evenodd" d="M490.238 417.371C486.26 438.324 480.857 458.974 474.804 476.551L416.143 499.548L350.731 476.55C353.022 352.692 399.28 293.295 438.619 274.075C452.8 263.27 467.325 259.202 467.325 259.202C467.325 259.202 486.433 289.79 487.427 289.79C494.777 307.279 497.543 330.095 497.067 354.728L490.238 417.371Z" fill="#ECEAEC"/>
<path fill-rule="evenodd" clip-rule="evenodd" d="M350.731 476.55H474.804C503.38 479.668 538.527 501.443 538.527 568.891V639.587H473.767V584.952C473.767 557.982 473.767 544.258 453.146 544.258L412.077 544.215C386.225 544.173 369.278 537.548 359.81 523.349C352.505 512.396 349.694 496.941 350.731 476.55V476.55Z" fill="#2D8D52"/>
<path fill-rule="evenodd" clip-rule="evenodd" d="M350.732 476.55C353.022 352.692 399.28 293.295 438.62 274.075C444.457 278.187 450.941 281.564 458.074 284.075C423.23 310.44 388.299 369.359 386.311 476.55H350.732Z" fill="#DAD8DB"/>
<path fill-rule="evenodd" clip-rule="evenodd" d="M350.732 476.55H386.311C385.273 496.941 388.083 512.396 395.389 523.349C401.356 532.309 410.348 539.886 422.669 544.215H412.077C386.225 544.173 369.278 537.548 359.81 523.349C352.505 512.396 349.695 496.941 350.732 476.55Z" fill="#3C663B"/>
<path fill-rule="evenodd" clip-rule="evenodd" d="M251.431 329.358H119.014C102.5 329.358 89.0125 342.865 89.0125 359.402V409.101H281.433V359.402C281.433 342.865 267.945 329.358 251.431 329.358V329.358Z" fill="#F3C623"/>
<path fill-rule="evenodd" clip-rule="evenodd" d="M281.433 394.122H89.011V441.354H281.433V394.122Z" fill="#2D8D52"/>
<path fill-rule="evenodd" clip-rule="evenodd" d="M129.173 394.122H104.532H89.0111V359.402C89.0111 348.103 95.3235 338.233 104.531 333.124C108.854 330.744 113.782 329.358 119.013 329.358H159.175C142.661 329.358 129.173 342.865 129.173 359.402V394.122Z" fill="#DD7631"/>
<path fill-rule="evenodd" clip-rule="evenodd" d="M129.173 441.354H104.53H89.0109V426.419V409.101V394.122H104.53H129.173V409.101V426.419V441.354Z" fill="#3C663B"/>
<path fill-rule="evenodd" clip-rule="evenodd" d="M129.173 441.354V493.304C129.173 509.841 142.661 523.348 159.175 523.348H119.013C113.782 523.348 108.854 522.007 104.531 519.624C95.322 514.473 89.0111 504.602 89.0111 493.304V441.354H104.531H129.173Z" fill="#DD7631"/>
<path fill-rule="evenodd" clip-rule="evenodd" d="M411.041 741.886C411.041 677.858 360.332 626.86 297.775 626.86C246.892 626.86 203.834 660.628 189.524 707.685C186.583 717.339 184.855 727.6 184.552 738.25C184.422 742.405 187.276 741.886 191.166 741.886C264.444 741.886 337.763 741.842 411.041 741.886V741.886Z" fill="#2D8D52"/>
<path fill-rule="evenodd" clip-rule="evenodd" d="M382.549 741.886H210.143C212.607 788.381 250.262 825.353 296.346 825.353C342.431 825.352 380.086 788.381 382.549 741.886V741.886Z" fill="#8B5E5E"/>
<path fill-rule="evenodd" clip-rule="evenodd" d="M820.352 723.486L672.026 757.643C681.451 798.641 722.304 824.269 763.244 814.832C804.228 805.394 829.776 764.483 820.352 723.486Z" fill="#8B5E5E"/>
<path fill-rule="evenodd" clip-rule="evenodd" d="M831.462 681.882C810.495 651.362 774.094 633.656 736.05 637.465C668.955 651.664 647.123 691.795 642.757 741.841C642.844 748.638 643.579 755.478 645.047 762.319C645.479 764.223 646.734 763.445 648.808 762.969L672.023 757.645L820.35 723.488L831.46 720.933L846.979 717.339C843.998 704.264 838.637 692.316 831.462 681.882V681.882Z" fill="#ECEAEC"/>
<path fill-rule="evenodd" clip-rule="evenodd" d="M736.181 637.292L676.263 429.838L649.287 417.759L619.111 429.838C658.754 539.799 647.687 616.555 620.927 689.805C614.53 707.208 607.267 724.438 599.614 741.885H642.715L736.181 637.292Z" fill="#2D8D52"/>
<path fill-rule="evenodd" clip-rule="evenodd" d="M550.631 197.233L480.338 182.253C473.205 182.904 452.799 200.047 452.799 210.782L467.757 286.889C473.983 288.751 480.597 289.79 487.428 289.79C524.866 289.79 555.214 259.357 555.214 221.866C555.214 213.163 553.614 204.851 550.631 197.233V197.233Z" fill="#FFECE4"/>
<path fill-rule="evenodd" clip-rule="evenodd" d="M573.328 197.232C573.328 148.831 535.025 109.652 487.73 109.652C440.436 109.652 402.133 148.831 402.133 197.232C402.133 229.181 415.102 257.581 438.619 274.074C447.006 280.006 456.777 284.378 467.756 286.888V210.781C467.756 200.044 473.204 197.88 480.337 197.23H550.63H573.328V197.232Z" fill="#2D8D52"/>
<path fill-rule="evenodd" clip-rule="evenodd" d="M532.519 122.596C519.506 114.371 504.159 109.652 487.731 109.652C440.436 109.652 402.133 148.831 402.133 197.232C402.133 229.181 415.103 257.581 438.62 274.074C444.586 278.274 451.2 281.694 458.463 284.204C441.084 266.585 431.659 241.302 431.659 213.421C431.659 162.857 471.734 121.859 521.147 121.859C524.997 121.86 528.8 122.077 532.519 122.596V122.596Z" fill="#3C663B"/>
<path fill-rule="evenodd" clip-rule="evenodd" d="M538.527 639.586H473.767V680.41C473.767 689.156 478.522 689.805 485.525 689.805H578.472C580.332 648.851 555.561 639.586 538.527 639.586Z" fill="#8B5E5E"/>
<path fill-rule="evenodd" clip-rule="evenodd" d="M620.927 689.806C647.686 616.556 658.754 539.8 619.11 429.838H641.331C641.418 429.838 641.503 429.838 641.59 429.838H649.588C689.231 539.8 678.206 616.556 651.404 689.806C645.049 707.209 637.787 724.439 630.091 741.886H614.527H599.612C607.265 724.439 614.527 707.209 620.927 689.806V689.806Z" fill="#3C663B"/>
<path fill-rule="evenodd" clip-rule="evenodd" d="M642.757 741.842L736.051 637.465C745.691 636.513 755.246 636.902 764.454 638.592L674.792 738.898C674.879 744.743 675.44 750.673 676.564 756.605L672.026 757.644L648.811 762.968C646.735 763.444 645.481 764.224 645.05 762.318C643.578 755.478 642.843 748.639 642.757 741.842V741.842Z" fill="#DAD8DB"/>
<path fill-rule="evenodd" clip-rule="evenodd" d="M206.902 584.952H473.767V608.458H254.499C236.644 608.458 228.171 616.165 221.21 631.793C215.202 645.344 215.072 649.759 212.348 666.124C202.102 678.028 194.234 692.142 189.522 707.683C178.672 644.997 191.251 612.226 206.902 584.952V584.952Z" fill="#DD7631"/>
<path fill-rule="evenodd" clip-rule="evenodd" d="M212.348 666.126C233.098 642.012 263.663 626.86 297.773 626.86C306.334 626.86 314.633 627.812 322.631 629.587C271.575 641.146 235.867 686.255 234.309 738.25C234.222 741.107 235.52 741.757 237.594 741.886H210.143H191.164C187.274 741.886 184.42 742.405 184.55 738.25C184.852 727.6 186.581 717.34 189.522 707.685C189.609 707.382 189.694 707.122 189.781 706.863C189.781 706.863 189.781 706.863 189.781 706.82C194.538 691.624 202.276 677.814 212.348 666.126Z" fill="#3C663B"/>
<path fill-rule="evenodd" clip-rule="evenodd" d="M676.567 756.604L820.353 723.486C821.953 730.283 822.514 737.123 822.255 743.79L708.124 770.068L703.628 771.107C707.865 789.723 718.629 805.177 732.939 815.61C703.758 810.459 679.073 788.38 672.027 757.643L676.567 756.604Z" fill="#673531"/>
<path fill-rule="evenodd" clip-rule="evenodd" d="M237.595 741.886H382.55C382.074 750.977 380.215 759.722 377.232 767.905H276.244H248.793C249.874 788.251 257.655 806.737 269.932 821.154C236.601 810.201 212.088 779.074 210.144 741.886H237.595Z" fill="#673531"/>
<path fill-rule="evenodd" clip-rule="evenodd" d="M188.225 566.251V523.348H246.802V566.251C246.802 576.554 255.233 584.952 265.479 584.952H206.901C196.655 584.952 188.225 576.554 188.225 566.251Z" fill="#673531"/>
<path fill-rule="evenodd" clip-rule="evenodd" d="M554.868 214.592H497.111C489.978 215.242 484.531 217.449 484.531 228.186V289.704C478.738 289.445 473.118 288.492 467.758 286.89V210.781C467.758 200.044 473.205 197.881 480.338 197.23H550.631C552.75 202.686 554.22 208.531 554.868 214.592V214.592Z" fill="#FFDDCE"/>
<path fill-rule="evenodd" clip-rule="evenodd" d="M688.755 364.511L607.87 391.265C603.893 394.814 608.389 431.007 611.07 429.838H676.262H705.097V370.268C705.097 358.536 699.001 361.134 688.755 364.511V364.511Z" fill="#F3C623"/>
<path fill-rule="evenodd" clip-rule="evenodd" d="M570.174 429.839H576.961H611.07C633.031 429.839 633.679 393.387 607.87 391.266L570.173 388.235L560.057 409.665L570.174 429.839Z" fill="#FFECE4"/>
<path fill-rule="evenodd" clip-rule="evenodd" d="M497.069 354.726L483.539 343.081C449.645 313.86 406.803 363.168 452.109 392.607L490.24 417.369L509.435 429.837H570.175V388.233L532.435 385.16L497.069 354.726Z" fill="#2D8D52"/>
<path fill-rule="evenodd" clip-rule="evenodd" d="M570.173 429.838V409.664H578.257H582.623H589.454H623.563C624.86 409.664 626.07 409.577 627.237 409.318C628.491 419.362 622.828 429.838 611.068 429.838H576.959H570.173Z" fill="#FFDDCE"/>
<path fill-rule="evenodd" clip-rule="evenodd" d="M452.109 392.606C424.7 374.77 429.542 349.704 445.148 339.141C443.895 349.963 449.039 362.388 464.602 372.475L494.302 391.739L502.689 397.238L521.884 409.662H570.173V429.836H509.433L490.238 417.369L452.109 392.606Z" fill="#3C663B"/>
<path fill-rule="evenodd" clip-rule="evenodd" d="M607.871 391.265L640.424 380.528C651.318 392.218 656.593 414.989 649.588 429.837H619.111H611.07C622.829 429.837 628.493 419.361 627.239 409.317C626.114 400.617 619.846 392.26 607.871 391.265V391.265Z" fill="#DD7631"/>
<path d="M119.014 317.913H251.431C274.281 317.913 292.872 336.524 292.872 359.402V511.903H342.401C339.649 501.891 338.628 490.081 339.298 476.338V476.336C340.373 418.257 350.905 369.309 370.605 330.85C385.902 300.991 403.753 283.089 419.071 272.387C401.092 253.89 390.697 227.577 390.697 197.229C390.697 142.627 434.228 98.2061 487.733 98.2061C541.238 98.2061 584.768 142.627 584.768 197.229C584.768 203.552 579.647 208.674 573.33 208.674H565.558C566.274 212.993 566.655 217.394 566.655 221.864C566.655 260.344 539.176 292.505 502.845 299.712C506.653 313.861 508.546 330.545 508.538 349.498L537.066 374.05L606.481 379.667L686.553 353.182C693.892 350.74 702.21 347.981 709.427 353.188C716.538 358.323 716.538 367.313 716.538 370.266V429.834C716.538 436.156 711.417 441.279 705.1 441.279H691.483L712.369 513.496C714.124 519.567 710.629 525.915 704.56 527.671C698.489 529.437 692.149 525.93 690.392 519.86L667.665 441.279H635.147C675.593 564.691 652.515 647.068 617.043 730.436H637.604L723.243 634.624L705.134 572.026C703.377 565.954 706.872 559.608 712.941 557.851C719.009 556.095 725.352 559.592 727.109 565.663L744.429 625.539C798 624.645 845.919 661.602 858.13 714.773C859.544 720.932 855.702 727.073 849.548 728.489L833.311 732.228C837.459 775.341 809.084 816.017 765.811 825.983C759.24 827.498 752.612 828.246 746.029 828.246C729.796 828.246 713.848 823.692 699.743 814.846C683.188 804.466 670.853 789.206 664.177 771.171L651.365 774.121C647.548 775.005 643.927 775.452 640.309 773.503C636.944 771.69 634.706 768.417 633.867 764.723C633.062 760.976 632.449 757.169 632.024 753.326H392.8C385.15 800.918 344.681 836.793 296.35 836.793C248.018 836.793 207.548 800.918 199.898 753.326H191.168L190.158 753.337C189.809 753.342 189.436 753.346 189.042 753.346C185.771 753.346 181.046 752.983 177.166 749.034C175.225 747.057 172.946 743.522 173.122 737.904C173.443 727.157 175.055 716.772 177.807 706.902C168.696 651.556 177.462 617.848 190.457 591.468C182.242 586.079 176.794 576.795 176.794 566.247V534.792H119.019C96.1682 534.792 77.5773 516.18 77.5773 493.302V359.4C77.5727 336.524 96.1621 317.913 119.014 317.913V317.913ZM711.89 795.453C726.532 804.636 743.857 807.555 760.676 803.68H760.678C791.634 796.551 812.287 768.147 810.782 737.434L686.711 766.007C691.844 778.101 700.529 788.33 711.89 795.453V795.453ZM654.656 749.877L832.582 708.91C818.851 671.288 781.901 646.383 741.512 648.526L654.351 746.04C654.427 747.326 654.528 748.605 654.656 749.877ZM481.885 550.435C485.205 559.197 485.205 570 485.205 584.953V628.143H527.089V568.89C527.089 501.901 490.551 489.963 474.153 487.993H362.014C362.466 503.197 365.894 514.004 372.403 520.864C379.989 528.857 392.969 532.751 412.088 532.77L453.145 532.812C467.786 532.814 477.455 538.741 481.885 550.435V550.435ZM485.205 651.031V678.359C485.309 678.359 485.416 678.359 485.526 678.359H566.772C565.859 669.884 563.22 663.325 558.887 658.787C552.442 652.038 543.365 651.031 538.527 651.031H485.205ZM362.519 465.105H466.541C470.719 451.952 474.443 437.549 477.505 422.747L445.879 402.207C428.615 390.989 419.634 375.138 421.238 358.717C422.66 344.16 432.55 331.157 446.434 325.592C459.114 320.51 472.762 322.106 484.824 329.823C483.83 318.876 481.978 309.103 479.3 300.808C474.425 300.304 469.582 299.35 464.827 297.951C455.147 295.702 446.203 292.117 438.127 287.363C416.097 300.533 367.645 343.249 362.519 465.105V465.105ZM561.055 185.786C555.66 149.216 524.835 121.098 487.733 121.098C446.842 121.098 413.573 155.252 413.573 197.231C413.573 231.374 429.936 258.892 456.32 271.003V210.782C456.32 200.355 460.308 187.563 479.302 185.833C479.646 185.801 479.993 185.786 480.339 185.786H561.055ZM543.777 221.865C543.777 217.348 543.263 212.937 542.252 208.676H480.9C480.194 208.752 479.678 208.835 479.309 208.909C479.25 209.334 479.198 209.944 479.198 210.782V277.737C481.923 278.139 484.666 278.342 487.406 278.343C487.432 278.343 487.458 278.343 487.482 278.343C518.527 278.314 543.777 252.99 543.777 221.865ZM558.605 398.761L531.514 396.568C529.099 396.374 526.81 395.418 524.972 393.838L476.078 351.758L476.07 351.751C471.342 347.675 466.296 345.584 461.382 345.584C459.195 345.584 457.034 345.999 454.94 346.838C448.896 349.26 444.604 354.796 444.003 360.94C443.248 368.673 448.339 376.51 458.333 383.005L512.817 418.39H558.602V398.761H558.605ZM606.945 402.674L581.482 400.614V418.393H611.07C614.906 418.393 615.841 415.204 615.951 412.529C616.013 411.012 615.87 403.406 606.945 402.674V402.674ZM634.017 394.772C637.462 400.424 639.071 407.037 638.807 413.466C638.739 415.131 638.527 416.734 638.231 418.297C638.231 418.329 638.249 418.361 638.243 418.392H693.659V374.941L633.973 394.683C633.991 394.714 634 394.743 634.017 394.772V394.772ZM611.006 441.282H509.433C507.223 441.282 505.059 440.641 503.206 439.437L498.028 436.074C495.538 447.088 492.701 457.807 489.611 467.931C512.939 474.821 549.967 497.087 549.967 568.889V629.29C557.992 630.911 567.486 634.656 575.427 642.971C583.798 651.736 588.58 663.613 589.726 678.358H612.801C636.053 611.308 644.895 539.957 611.006 441.282V441.282ZM592.153 730.398C596.381 720.67 600.456 710.978 604.293 701.249H485.527C470.134 701.249 462.331 694.237 462.331 680.41V639.586V596.397H372.046C365.728 596.397 360.608 591.274 360.608 584.952C360.608 578.629 365.728 573.507 372.046 573.507H462.248C462.102 567.006 461.685 561.689 460.494 558.549C459.916 557.021 459.416 555.703 453.134 555.703L412.066 555.66C386.346 555.635 367.945 549.409 355.813 536.624C355.252 536.032 354.721 535.411 354.189 534.793H281.433H199.664V566.249C199.664 570.183 202.978 573.507 206.901 573.507H320.772C327.091 573.507 332.211 578.629 332.211 584.952C332.211 591.274 327.091 596.397 320.772 596.397H213.622C204.581 613.188 196.45 634.08 196.933 667.09C219.562 635.637 256.197 615.413 297.774 615.413C331.164 615.413 362.496 628.518 385.999 652.316C406.855 673.432 419.381 700.837 421.958 730.436L592.153 730.398ZM296.348 813.906C332.105 813.906 362.263 788.127 369.559 753.329H223.137C230.435 788.124 260.592 813.906 296.348 813.906V813.906ZM210.143 730.439H382.55H398.983C393.367 678.687 350.121 638.303 297.774 638.303C251.815 638.303 213.219 668.626 200.438 711.075C200.396 711.21 200.355 711.344 200.31 711.477C198.502 717.567 197.226 723.906 196.535 730.439H210.143ZM100.449 493.304C100.449 503.56 108.778 511.903 119.014 511.903H269.996V452.799H100.449V493.304ZM100.449 429.909H269.996V405.567H100.449V429.909ZM100.449 382.677H269.996V359.402C269.996 349.146 261.667 340.803 251.431 340.803H119.014C108.778 340.803 100.449 349.147 100.449 359.402V382.677Z" fill="black"/>
</svg>
