<svg width="936" height="935" viewBox="0 0 936 935" fill="none" xmlns="http://www.w3.org/2000/svg">
<path d="M659.084 438.995C748.849 438.995 821.619 366.337 821.619 276.708C821.619 187.079 748.849 114.42 659.084 114.42C569.318 114.42 496.548 187.079 496.548 276.708C496.548 366.337 569.318 438.995 659.084 438.995Z" fill="#F3C623"/>
<path d="M659.083 391.53C722.595 391.53 774.081 340.123 774.081 276.708C774.081 213.293 722.595 161.885 659.083 161.885C595.572 161.885 544.085 213.293 544.085 276.708C544.085 340.123 595.572 391.53 659.083 391.53Z" fill="white"/>
<path d="M192.005 276.708H114.381L169.116 769.498C172.345 798.578 196.961 820.581 226.264 820.581H546.702C575.983 820.581 600.587 798.609 603.844 769.555L659.083 276.708H361.627H192.005Z" fill="#C9F3FF"/>
<path d="M614.349 675.825L659.083 276.708H114.381L158.703 675.749C162.959 714.077 195.402 743.075 234.022 743.075H539.038C577.629 743.075 610.057 714.119 614.349 675.825Z" fill="#95D6A4"/>
<path d="M659.083 276.708H114.381L125.273 374.772H648.091L659.083 276.708Z" fill="#F4FFD2"/>
<path d="M292.898 640.6L229.365 190.111C227.886 179.628 218.902 171.831 208.299 171.831H114.381V114.42H226.984C255.528 114.42 279.715 135.408 283.696 163.63L349.837 632.592" fill="#ED3500"/>
<path d="M535.666 690.408L496.645 729.369C480.925 745.065 455.437 745.065 439.717 729.369L400.697 690.408C384.977 674.712 384.977 649.263 400.697 633.567L439.717 594.606C455.437 578.909 480.925 578.909 496.645 594.606L535.666 633.567C551.386 649.264 551.386 674.712 535.666 690.408Z" fill="white"/>
<path d="M305.46 646.606L266.44 685.567C250.72 701.263 225.232 701.263 209.512 685.567L170.491 646.606C154.771 630.91 154.771 605.461 170.491 589.764L209.512 550.803C225.232 535.107 250.72 535.107 266.44 550.803L305.46 589.764C321.18 605.461 321.18 630.91 305.46 646.606Z" fill="white"/>
<path d="M458.117 467.499H407.334C395.841 467.499 386.525 458.197 386.525 446.722V396.016C386.525 384.541 395.841 375.239 407.334 375.239H458.117C469.609 375.239 478.926 384.541 478.926 396.016V446.722C478.926 458.197 469.609 467.499 458.117 467.499Z" fill="white"/>
<path d="M519.299 530.838C514.188 483.84 548.201 449.879 595.27 454.983C600.382 501.982 566.37 535.942 519.299 530.838Z" fill="#95D6A4"/>
<path d="M659.084 100.067C566.374 100.067 490.1 171.642 482.759 262.355H409.064C401.125 262.355 394.689 268.78 394.689 276.707C394.689 284.635 401.125 291.06 409.064 291.06H549.555H643.01L600.064 674.227V674.228C596.581 705.295 570.347 728.722 539.039 728.722H517.625L545.832 700.559C556.151 690.255 561.833 676.558 561.833 661.988C561.833 647.419 556.151 633.722 545.832 623.419L506.811 584.457C485.512 563.192 450.856 563.192 429.554 584.457L390.533 623.419C380.215 633.722 374.533 647.419 374.533 661.988C374.533 676.558 380.215 690.255 390.533 700.559L418.741 728.722H234.023C202.683 728.722 176.446 705.269 172.99 674.168L172.394 668.803L199.348 695.716C209.666 706.019 223.385 711.692 237.977 711.692C252.569 711.692 266.288 706.019 276.605 695.716L315.625 656.755C325.943 646.453 331.626 632.754 331.626 618.186C331.626 603.617 325.943 589.918 315.625 579.616L276.605 540.654C255.306 519.388 220.65 519.39 199.348 540.654L162.273 577.674L130.438 291.06H192.005C199.945 291.06 206.38 284.635 206.38 276.707C206.38 268.78 199.945 262.355 192.005 262.355H114.382C110.294 262.355 106.398 264.093 103.671 267.134C100.944 270.176 99.6434 274.232 100.095 278.289L144.416 677.329V677.332C144.416 677.333 144.416 677.334 144.416 677.337L154.828 771.079C158.872 807.482 189.582 834.933 226.265 834.933H546.702C583.348 834.933 614.054 807.513 618.13 771.15L653.759 453.265C655.538 453.318 657.313 453.35 659.084 453.35C756.632 453.35 835.994 374.109 835.994 276.707C835.994 179.306 756.632 100.067 659.084 100.067ZM403.284 661.988C403.284 655.086 405.976 648.599 410.864 643.719L449.884 604.756C454.929 599.719 461.556 597.2 468.183 597.2C474.81 597.2 481.438 599.719 486.482 604.756L525.504 643.719C530.391 648.599 533.083 655.088 533.083 661.988C533.083 668.889 530.391 675.38 525.504 680.26L486.483 719.22C476.394 729.295 459.975 729.298 449.884 719.22L410.864 680.26C405.976 675.38 403.284 668.889 403.284 661.988ZM180.658 599.915L219.678 560.953C224.724 555.915 231.35 553.396 237.977 553.396C244.604 553.396 251.232 555.915 256.276 560.953L295.298 599.915C300.185 604.795 302.878 611.284 302.878 618.186C302.878 625.089 300.185 631.576 295.298 636.456L256.276 675.418C251.389 680.298 244.89 682.985 237.977 682.985C231.064 682.985 224.566 680.298 219.678 675.417L180.658 636.456C170.567 626.382 170.567 609.989 180.658 599.915ZM670.046 307.952L719.313 357.144C703.311 369.12 683.627 376.424 662.297 377.097L670.046 307.952ZM739.641 336.845L693.787 291.06H758.663C756.217 308.056 749.512 323.696 739.641 336.845ZM693.787 262.355L739.641 216.57C749.512 229.719 756.217 245.359 758.663 262.355H693.787ZM673.459 242.057V177.28C690.48 179.722 706.142 186.417 719.313 196.273L673.459 242.057ZM644.709 242.057L598.855 196.273C612.025 186.417 627.688 179.722 644.709 177.28V242.057ZM578.525 216.572L624.379 262.356H559.503C561.949 245.359 568.654 229.721 578.525 216.572ZM546.702 806.227H226.265C204.256 806.227 185.829 789.756 183.404 767.915L180.271 739.716C195.332 750.88 213.964 757.428 234.023 757.428H539.039C559.062 757.428 577.668 750.897 592.719 739.761L589.559 767.957C587.112 789.775 568.688 806.227 546.702 806.227ZM659.084 424.644C658.381 424.644 657.675 424.625 656.971 424.614L659.071 405.882C659.075 405.882 659.08 405.882 659.085 405.882C730.421 405.882 788.458 347.934 788.458 276.706C788.458 205.479 730.421 147.53 659.085 147.53C592.608 147.53 537.689 197.856 530.516 262.353H511.623C518.874 187.493 582.236 128.773 659.084 128.773C740.78 128.773 807.244 195.136 807.244 276.707C807.244 358.281 740.78 424.644 659.084 424.644Z" fill="black"/>
<path d="M361.627 291.061C365.408 291.061 369.116 289.525 371.79 286.855C374.464 284.186 376.002 280.483 376.002 276.708C376.002 272.933 374.464 269.23 371.79 266.56C369.116 263.891 365.408 262.355 361.627 262.355C357.847 262.355 354.138 263.891 351.464 266.56C348.791 269.23 347.252 272.933 347.252 276.708C347.252 280.483 348.791 284.186 351.464 286.855C354.138 289.525 357.847 291.061 361.627 291.061Z" fill="black"/>
<path d="M114.382 186.184H208.299C211.717 186.184 214.654 188.732 215.13 192.112L258.852 502.125C259.959 509.974 267.232 515.437 275.091 514.336C282.953 513.23 288.428 505.971 287.321 498.122L243.599 188.107C241.135 170.646 225.96 157.478 208.299 157.478H128.756V128.773H226.985C248.238 128.773 266.498 144.618 269.462 165.632L335.603 634.594C336.615 641.765 342.769 646.948 349.82 646.947C350.487 646.947 351.164 646.901 351.842 646.804C359.704 645.698 365.179 638.44 364.072 630.59L297.93 161.629C292.981 126.532 262.48 100.067 226.985 100.067H114.382C106.442 100.067 100.007 106.493 100.007 114.42V171.831C100.007 179.758 106.442 186.184 114.382 186.184Z" fill="black"/>
<path d="M493.301 446.723V396.016C493.301 376.645 477.519 360.886 458.118 360.886H407.333C387.933 360.886 372.149 376.644 372.149 396.016V446.723C372.149 466.094 387.931 481.853 407.333 481.853H458.118C477.519 481.853 493.301 466.095 493.301 446.723ZM400.9 446.723V396.016C400.9 392.474 403.787 389.591 407.334 389.591H458.119C461.667 389.591 464.553 392.474 464.553 396.016V446.723C464.553 450.265 461.667 453.147 458.119 453.147H407.334C403.787 453.147 400.9 450.265 400.9 446.723Z" fill="black"/>
<path d="M505.01 532.388C505.739 539.088 511.038 544.379 517.748 545.106C521.444 545.507 525.089 545.706 528.678 545.706C551.484 545.706 571.906 537.686 587.017 522.598C604.507 505.135 612.512 480.572 609.561 453.433C608.832 446.733 603.533 441.441 596.822 440.714C569.642 437.768 545.043 445.76 527.553 463.223C510.065 480.688 502.058 505.25 505.01 532.388ZM547.882 483.523C556.472 474.945 568.036 469.966 581.231 469.002C580.266 482.176 575.278 493.725 566.689 502.3C558.099 510.878 546.535 515.857 533.34 516.82C534.305 503.647 539.293 492.098 547.882 483.523Z" fill="black"/>
<path d="M561.81 572.692C559.136 575.36 557.598 579.05 557.598 582.838C557.598 586.614 559.136 590.302 561.81 592.986C564.484 595.655 568.192 597.177 571.973 597.177C575.768 597.177 579.462 595.655 582.15 592.986C584.824 590.302 586.348 586.614 586.348 582.838C586.348 579.049 584.824 575.36 582.15 572.692C579.462 570.008 575.768 568.485 571.973 568.485C568.192 568.485 564.484 570.008 561.81 572.692Z" fill="black"/>
<path d="M591.795 385.387C594.469 382.717 596.007 379.014 596.007 375.24C596.007 371.465 594.469 367.762 591.795 365.092C589.121 362.422 585.427 360.887 581.632 360.887C577.852 360.887 574.143 362.422 571.469 365.092C568.795 367.762 567.257 371.465 567.257 375.24C567.257 379.014 568.795 382.717 571.469 385.387C574.143 388.057 577.852 389.592 581.632 389.592C585.427 389.592 589.121 388.057 591.795 385.387Z" fill="black"/>
<path d="M172.743 381.383C170.054 384.053 168.531 387.756 168.531 391.531C168.531 395.305 170.054 399.008 172.743 401.678C175.416 404.348 179.111 405.883 182.906 405.883C186.686 405.883 190.395 404.348 193.068 401.678C195.742 399.008 197.28 395.305 197.28 391.531C197.28 387.756 195.742 384.053 193.068 381.383C190.395 378.713 186.686 377.178 182.906 377.178C179.125 377.178 175.416 378.713 172.743 381.383Z" fill="black"/>
<path d="M390.276 521.194C387.602 523.862 386.064 527.565 386.064 531.34C386.064 535.13 387.602 538.818 390.276 541.487C392.949 544.171 396.658 545.693 400.439 545.693C404.219 545.693 407.928 544.171 410.602 541.487C413.275 538.818 414.813 535.129 414.813 531.34C414.813 527.565 413.275 523.862 410.602 521.194C407.928 518.524 404.219 516.987 400.439 516.987C396.658 516.987 392.949 518.524 390.276 521.194Z" fill="black"/>
</svg>
