<svg width="37" height="37" viewBox="0 0 37 37" fill="none" xmlns="http://www.w3.org/2000/svg">
<g clip-path="url(#clip0)">
<path d="M36.9638 10.8781C36.8771 8.91215 36.5592 7.56057 36.1038 6.38942C35.634 5.14626 34.9112 4.03327 33.9642 3.10803C33.039 2.16839 31.9186 1.43825 30.6899 0.975777C29.5119 0.520358 28.1674 0.20244 26.2015 0.11576C24.2208 0.0217404 23.5921 0 18.5686 0C13.5452 0 12.9164 0.0217404 10.9431 0.10842C8.97715 0.195099 7.62558 0.513299 6.4547 0.968436C5.21126 1.43825 4.09827 2.16105 3.17303 3.10803C2.23339 4.03327 1.50354 5.1536 1.04078 6.38236C0.58536 7.56057 0.267442 8.90481 0.180763 10.8708C0.0867428 12.8514 0.0650024 13.4802 0.0650024 18.5036C0.0650024 23.5271 0.0867428 24.1558 0.173422 26.1291C0.260101 28.0951 0.578301 29.4467 1.03372 30.6178C1.50354 31.861 2.23339 32.974 3.17303 33.8992C4.09827 34.8388 5.2186 35.569 6.44736 36.0315C7.62558 36.4869 8.96981 36.8048 10.936 36.8915C12.9091 36.9784 13.5381 36.9999 18.5616 36.9999C23.585 36.9999 24.2138 36.9784 26.1871 36.8915C28.153 36.8048 29.5046 36.4869 30.6755 36.0315C33.1621 35.0701 35.128 33.1041 36.0894 30.6178C36.5445 29.4396 36.8627 28.0951 36.9494 26.1291C37.0361 24.1558 37.0578 23.5271 37.0578 18.5036C37.0578 13.4802 37.0505 12.8514 36.9638 10.8781ZM33.6319 25.9846C33.5523 27.7916 33.2487 28.7673 32.9958 29.4179C32.374 31.0298 31.0947 32.309 29.4829 32.9308C28.8323 33.1837 27.8495 33.4873 26.0496 33.5666C24.098 33.6536 23.5127 33.675 18.576 33.675C13.6392 33.675 13.0466 33.6536 11.1021 33.5666C9.29507 33.4873 8.31929 33.1837 7.66877 32.9308C6.86664 32.6343 6.1365 32.1645 5.54386 31.5501C4.92949 30.9501 4.45967 30.2273 4.16321 29.4252C3.91023 28.7747 3.60671 27.7916 3.52737 25.9919C3.44041 24.0404 3.41895 23.4548 3.41895 18.518C3.41895 13.5813 3.44041 12.9886 3.52737 11.0444C3.60671 9.23741 3.91023 8.26163 4.16321 7.61111C4.45967 6.8087 4.92949 6.07884 5.5512 5.48592C6.1509 4.87154 6.8737 4.40172 7.67612 4.10555C8.32663 3.85257 9.30975 3.54905 11.1094 3.46943C13.061 3.38275 13.6465 3.36101 18.583 3.36101C23.5271 3.36101 24.1124 3.38275 26.0569 3.46943C27.8639 3.54905 28.8397 3.85257 29.4902 4.10555C30.2923 4.40172 31.0225 4.87154 31.6151 5.48592C32.2295 6.0859 32.6993 6.8087 32.9958 7.61111C33.2487 8.26163 33.5523 9.24447 33.6319 11.0444C33.7186 12.996 33.7403 13.5813 33.7403 18.518C33.7403 23.4548 33.7186 24.033 33.6319 25.9846Z" fill="white"/>
<path d="M18.5686 8.99878C13.3213 8.99878 9.06383 13.2559 9.06383 18.5036C9.06383 23.7512 13.3213 28.0084 18.5686 28.0084C23.8162 28.0084 28.0734 23.7512 28.0734 18.5036C28.0734 13.2559 23.8162 8.99878 18.5686 8.99878ZM18.5686 24.6691C15.1644 24.6691 12.4031 21.9081 12.4031 18.5036C12.4031 15.0991 15.1644 12.338 18.5686 12.338C21.9731 12.338 24.7341 15.0991 24.7341 18.5036C24.7341 21.9081 21.9731 24.6691 18.5686 24.6691Z" fill="white"/>
<path d="M30.6684 8.62305C30.6684 9.84841 29.6748 10.842 28.4492 10.842C27.2238 10.842 26.2303 9.84841 26.2303 8.62305C26.2303 7.3974 27.2238 6.40411 28.4492 6.40411C29.6748 6.40411 30.6684 7.3974 30.6684 8.62305Z" fill="white"/>
</g>
<defs>
<clipPath id="clip0">
<rect width="37" height="37" fill="white"/>
</clipPath>
</defs>
</svg>
