<svg width="59" height="24" viewBox="0 0 59 24" fill="none" xmlns="http://www.w3.org/2000/svg">
<g clip-path="url(#clip0)">
<path d="M34.5833 2.82709H24.2491V21.1717H34.5833V2.82709Z" fill="#FF5F00"/>
<path d="M24.9059 12C24.9042 10.2333 25.3095 8.48937 26.0911 6.90025C26.8726 5.31112 28.0099 3.91847 29.4168 2.82771C27.6745 1.47491 25.5821 0.633621 23.3786 0.400005C21.1752 0.16639 18.9497 0.549862 16.9565 1.50661C14.9632 2.46336 13.2827 3.95478 12.107 5.81038C10.9313 7.66599 10.3078 9.81092 10.3078 12C10.3078 14.1891 10.9313 16.3341 12.107 18.1897C13.2827 20.0453 14.9632 21.5367 16.9565 22.4934C18.9497 23.4502 21.1752 23.8337 23.3786 23.6C25.5821 23.3664 27.6745 22.5251 29.4168 21.1723C28.0099 20.0816 26.8726 18.6889 26.0911 17.0998C25.3096 15.5107 24.9043 13.7667 24.9059 12V12Z" fill="#EB001B"/>
<path d="M48.5247 12C48.5248 14.1891 47.9013 16.334 46.7257 18.1896C45.55 20.0452 43.8695 21.5366 41.8764 22.4934C39.8832 23.4502 37.6577 23.8336 35.4543 23.6C33.2509 23.3664 31.1585 22.5251 29.4162 21.1723C30.8219 20.0805 31.9583 18.6876 32.7397 17.0987C33.5211 15.5098 33.9271 13.7665 33.9271 12C33.9271 10.2336 33.5211 8.49019 32.7397 6.90132C31.9583 5.31245 30.8219 3.91957 29.4162 2.82771C31.1585 1.4749 33.2509 0.633615 35.4543 0.400002C37.6577 0.16639 39.8832 0.549879 41.8764 1.50664C43.8695 2.46339 45.55 3.95481 46.7257 5.81042C47.9013 7.66603 48.5248 9.81095 48.5247 12V12Z" fill="#F79E1B"/>
<path d="M47.3979 19.229V18.8534H47.5512V18.7769H47.1608V18.8534H47.3142V19.229H47.3979ZM48.1559 19.229V18.7762H48.0363L47.8986 19.0876L47.7609 18.7762H47.6412V19.229H47.7257V18.8874L47.8548 19.1819H47.9424L48.0715 18.8867V19.229H48.1559Z" fill="#F79E1B"/>
</g>
<defs>
<clipPath id="clip0">
<rect width="58.2169" height="23.3333" fill="white" transform="translate(0.30777 0.333374)"/>
</clipPath>
</defs>
</svg>
