<?xml version="1.0" encoding="iso-8859-1"?>
<!-- Generator: Adobe Illustrator 19.0.0, SVG Export Plug-In . SVG Version: 6.00 Build 0)  -->
<svg xmlns="http://www.w3.org/2000/svg" xmlns:xlink="http://www.w3.org/1999/xlink" version="1.1" id="Layer_1" x="0px" y="0px" viewBox="0 0 506.132 506.132" style="enable-background:new 0 0 506.132 506.132;" xml:space="preserve" width="512" height="512">
<g>
	<g>
		<path style="fill:#AD7136;" d="M217.882,111.722l-23.663,40.764l2.002-41.457c1.914-29.293-9.336-60.722-24.874-88.742    l36.456-14.784C223.234,40.908,226.593,77.101,217.882,111.722z"/>
		<path style="fill:#FFE239;" d="M369.369,341.352c0,86.86-73.02,157.28-163.1,157.28c-90.07,0-163.1-70.42-163.1-157.28    c0-25.35,15.77-58.49,32.11-86.02c16.08-27.12,30.38-55.23,41.62-84.53c6.72-17.51,18.81-32.51,34.35-43.14    c15.54-10.62,34.53-16.86,55.02-16.86c2.36,0,4.7,0.08,7.02,0.25c37.94,2.66,69.69,26.74,82.36,59.75    c11.24,29.3,25.53,57.41,41.62,84.53c5.9,9.94,11.72,20.61,16.75,31.38C362.929,305.772,369.369,325.152,369.369,341.352z"/>
		<path style="fill:#FFB83B;" d="M205.214,498.622c-89.59-0.54-162.04-70.75-162.04-157.27c0-25.35,15.76-58.49,32.1-86.02    c16.09-27.12,30.38-55.23,41.62-84.53c13.44-35.03,48.38-60,89.37-60c-20.68,0-38.32,24.97-45.1,60    c-5.67,29.3-12.88,57.41-21,84.53c-8.24,27.53-16.2,60.67-16.2,86.02C123.964,427.532,160.244,497.532,205.214,498.622z"/>
		<path style="fill:#FFB83B;" d="M354.019,286.712c-34.86-4.86-68.43-20.93-94.86-48.13c-34.3-35.29-49.53-82.05-45.87-127.53    c37.94,2.66,69.69,26.74,82.36,59.75c11.24,29.3,25.53,57.41,41.62,84.53C343.169,265.272,348.989,275.942,354.019,286.712z"/>
		<path style="fill:#58B741;" d="M291.825,227.488c44.793,30.429,99.264,35.713,146.715,19.041    c8.006-2.8,15.805-6.235,23.328-10.271c6.832-58.791-18.461-119.285-70.81-154.847c-52.349-35.562-117.897-36.785-170.032-8.762    c-0.2,1.737-0.379,3.479-0.512,5.222C215.71,135.003,241.024,192.978,291.825,227.488z"/>
		<path style="fill:#70D65B;" d="M220.515,77.871c84.791,15.674,198.234,119.478,218.026,168.659    c8.006-2.8,15.805-6.235,23.328-10.271c6.832-58.791-18.461-119.285-70.81-154.847c-52.349-35.562-117.897-36.785-170.032-8.762    C220.826,74.386,220.647,76.128,220.515,77.871z"/>
	</g>
	<g>
		<path d="M277.07,434.586c-3.129,0.652-5.591,3.24-5.972,6.434c-0.355,2.975,1.121,5.971,3.746,7.441    c2.908,1.628,6.626,1.143,8.996-1.215c2.085-2.075,2.746-5.269,1.688-8.006C284.227,435.876,280.611,433.892,277.07,434.586z"/>
		<path d="M279.909,412.606c-2.543-6.011-11.319-6.052-13.85,0c-1.283,3.069-0.307,6.751,2.32,8.787    c2.36,1.829,5.656,2.079,8.267,0.627C279.908,420.208,281.368,416.05,279.909,412.606z"/>
		<path d="M301.799,427.646c4.848-4.813,0.869-13.348-5.923-12.774c-3.161,0.267-5.862,2.562-6.644,5.633    c-0.768,3.012,0.47,6.28,3.036,8.031C295.21,430.543,299.279,430.167,301.799,427.646z"/>
		<path d="M66.82,338.286c-1.773,2.629-1.634,6.165,0.255,8.69c1.893,2.532,5.337,3.589,8.33,2.591    c3.035-1.012,5.145-3.914,5.145-7.121c0-3.074-1.942-5.885-4.801-6.987C72.526,334.217,68.728,335.39,66.82,338.286z"/>
		<path d="M69.439,319.696c3.713,5.64,12.647,3.53,13.656-3.058c1.029-6.716-7.147-11.207-12.291-6.804    C67.969,312.26,67.343,316.591,69.439,319.696z"/>
		<path d="M89.82,333.296c1.683,2.556,4.903,3.817,7.879,3.149c3.188-0.716,5.592-3.507,5.828-6.765    c0.486-6.698-7.819-10.635-12.673-5.956C88.26,326.224,87.845,330.296,89.82,333.296z"/>
		<path d="M455.505,147.065c-1.688-3.783-6.124-5.48-9.905-3.793c-3.782,1.688-5.48,6.123-3.792,9.905    c10.967,24.576,15.439,51.563,13.012,78.293c-50.938,25.772-111.422,21.989-158.779-10.183    c-45.62-30.991-71.225-83.01-68.407-137.601c8.772,3.946,23.072,10.705,40.285,20.036l20.792,54.263    c1.145,2.985,3.988,4.818,7.006,4.818c0.892,0,1.799-0.16,2.682-0.499c3.868-1.482,5.802-5.819,4.32-9.687l-14.29-37.293    c13.584,8.016,28.153,17.302,42.77,27.773l6.24,32.678c0.687,3.594,3.83,6.095,7.358,6.095c0.467,0,0.94-0.044,1.415-0.135    c4.069-0.777,6.737-4.705,5.961-8.773l-3.147-16.479c16.802,13.239,33.15,28.02,47.571,44.226    c1.481,1.665,3.539,2.514,5.605,2.514c1.773,0,3.554-0.625,4.983-1.897c3.094-2.753,3.37-7.494,0.616-10.588    c-15.231-17.115-32.348-32.623-49.851-46.431l18.703-1.805c4.123-0.398,7.143-4.063,6.744-8.186    c-0.397-4.123-4.061-7.143-8.186-6.745l-35.011,3.379c-14.03-10.089-27.982-19.078-41.102-26.917l32.482-2.406    c4.131-0.306,7.231-3.903,6.926-8.033s-3.913-7.23-8.033-6.926l-54.755,4.056c-14.744-7.992-27.434-14.137-36.594-18.346    c48.458-20.016,103.746-14.638,147.721,15.236c16.048,10.902,29.739,24.438,40.692,40.23c2.362,3.404,7.034,4.249,10.438,1.888    c3.403-2.361,4.249-7.034,1.889-10.437c-12.009-17.313-27.011-32.147-44.589-44.089c-49.374-33.541-111.755-38.906-165.764-15.031    c-1.616-19.136-6.604-37.866-14.906-55.822c-1.681-3.634-5.918-5.308-9.627-3.802l-36.45,14.79    c-1.99,0.807-3.538,2.428-4.252,4.453c-0.715,2.024-0.527,4.258,0.514,6.135c15.897,28.653,24.169,55.74,24.129,78.794    c-15.032,2.465-29.285,8.122-41.906,16.747c-17.047,11.661-29.882,27.79-37.118,46.644    c-10.329,26.925-23.763,54.203-41.067,83.388c-10.201,17.188-18.178,33.148-23.709,47.438c-1.496,3.863,0.424,8.206,4.287,9.701    c0.89,0.345,1.805,0.508,2.705,0.508c3.007,0,5.846-1.822,6.996-4.795c5.231-13.515,12.842-28.721,22.622-45.199    c17.742-29.923,31.537-57.946,42.171-85.668c6.14-15.997,17.061-29.704,31.58-39.635c14.888-10.174,32.451-15.552,50.789-15.552    c2.757,0,5.512,0.138,8.243,0.383c7.285,46.156,33.213,87.917,73.098,115.012c12.642,8.588,26.137,15.327,40.125,20.205    c1.035,1.782,2.068,3.549,3.084,5.257c20.313,34.247,31.05,62.669,31.05,82.194c0,82.589-69.802,149.78-155.6,149.78    s-155.6-67.191-155.6-149.78c0-2.705,0.208-5.62,0.618-8.666c0.553-4.105-2.326-7.881-6.431-8.434    c-4.104-0.555-7.881,2.326-8.434,6.431c-0.5,3.707-0.753,7.296-0.753,10.668c0,90.86,76.531,164.78,170.6,164.78    c94.069,0,170.6-73.92,170.6-164.78c0-20.851-9.557-48.294-28.413-81.663c11.699,2.488,23.609,3.744,35.538,3.743    c27.859-0.001,55.823-6.815,81.42-20.571c2.159-1.161,3.616-3.304,3.899-5.74C472.88,206.442,468.106,175.301,455.505,147.065z     M206.269,103.302c-0.789,0-1.574,0.026-2.36,0.043c-0.201-23.413-7.568-49.321-22.007-77.241l21.942-8.904    c6.74,16.476,10.479,33.589,11.147,51.011c-0.761,1.035-1.264,2.257-1.417,3.571c-1.24,10.667-1.458,21.282-0.75,31.738    C210.644,103.386,208.457,103.302,206.269,103.302z"/>
	</g>
</g>















</svg>
