<svg width="55" height="14" viewBox="0 0 55 14" fill="none" xmlns="http://www.w3.org/2000/svg">
<path d="M19.4935 13.6592H15.9271L18.1578 0.383362H21.7239L19.4935 13.6592Z" fill="black"/>
<path d="M32.4217 0.708034C31.7182 0.439417 30.6025 0.142822 29.223 0.142822C25.7011 0.142822 23.2211 1.95046 23.2059 4.53487C23.1766 6.4417 24.9815 7.50072 26.3314 8.13651C27.7112 8.7862 28.1802 9.21025 28.1802 9.78936C28.1662 10.6788 27.0653 11.0887 26.0385 11.0887C24.6147 11.0887 23.8518 10.8774 22.6924 10.3825L22.2228 10.1704L21.7237 13.1505C22.5602 13.5174 24.1012 13.8428 25.7011 13.8571C29.4432 13.8571 31.8793 12.0774 31.9082 9.32326C31.9225 7.81194 30.9694 6.654 28.9147 5.70771C27.6673 5.10026 26.9034 4.69066 26.9034 4.06913C26.918 3.50419 27.5495 2.92545 28.9575 2.92545C30.1169 2.89711 30.9688 3.16536 31.6141 3.43379L31.9366 3.57478L32.4217 0.708034Z" fill="black"/>
<path d="M37.1616 8.95607C37.4553 8.19337 38.5854 5.2416 38.5854 5.2416C38.5706 5.26994 38.8786 4.46482 39.0546 3.97056L39.3039 5.11452C39.3039 5.11452 39.9793 8.2923 40.1259 8.95607C39.5686 8.95607 37.866 8.95607 37.1616 8.95607ZM41.5638 0.383362H38.8052C37.9546 0.383362 37.3083 0.623271 36.9413 1.48489L31.6439 13.659H35.386C35.386 13.659 36.002 12.0205 36.1344 11.6676C36.5449 11.6676 40.1852 11.6676 40.7133 11.6676C40.8157 12.1337 41.1389 13.659 41.1389 13.659H44.4409L41.5638 0.383362Z" fill="black"/>
<path d="M12.9485 0.383362L9.45583 9.43625L9.07421 7.60018C8.42854 5.48169 6.4034 3.17998 4.14356 2.03548L7.34264 13.6451H11.1139L16.7196 0.383362H12.9485Z" fill="black"/>
<path d="M6.21277 0.383362H0.474896L0.416199 0.651613C4.89208 1.75333 7.85638 4.40887 9.07421 7.60074L7.82694 1.49934C7.62159 0.651431 6.99046 0.411339 6.21277 0.383362Z" fill="black"/>
</svg>
