<svg height="512" viewBox="0 0 60 60" width="512" xmlns="http://www.w3.org/2000/svg"><g id="Page-1" fill="none" fill-rule="evenodd"><g id="007---Mineral-Water" fill-rule="nonzero"><g id="Icons" transform="translate(1 1)"><path id="Shape" d="m20.05 47 10.39 8.08c-3.3372273 2.0495189-7.2063779 3.0655189-11.12 2.92-11.32-.39-20.04-10.6-19.25-21.94.46-6.72 3.25-13.41 6.6-19.19 1.33 1.92 2.33 4.81 2.33 9.13 0-13 9-13 9-13-2.5698219-.1691062-4.9322608-1.4693633-6.45-3.55 2.3662088-3.22460287 4.9523658-6.28188153 7.74-9.15.1877666-.18931265.4433625-.29579832.71-.29579832s.5222334.10648567.71.29579832c2.52 2.54 11.19 12 16 23.28l-7.71 10.42.71 3-9.71-3z" fill="#02a9f4"/><path id="Shape" d="m33.72 23.58-7.72 10.42.47 2 3.24 1-.71-3 7.72-10.42c-4.82-11.31-13.49-20.74-16.01-23.28-.1877666-.18931265-.4433625-.29579832-.71-.29579832s-.5222334.10648567-.71.29579832l-.79.82c3.2 3.36 10.81 12.12 15.22 22.46z" fill="#0377bc"/><path id="Shape" d="m18 13s-9 0-9 13c0-4.32-1-7.21-2.33-9.13-1.49898038-2.2587085-3.96515889-3.6896096-6.67-3.87 0 0 9 0 9-13 0 4.57 1.11 7.53 2.55 9.45 1.5177392 2.0806367 3.8801781 3.3808938 6.45 3.55z" fill="#f5f5f5"/><path id="Shape" d="m49 34.5-.43 1.27-3.92 11.5-3.65 10.73.34-4.13.01-.02 1.65-19.85z" fill="#9d27b0"/><path id="Shape" d="m49 34.5-6-.5-4-13.5z" fill="#9d27b0"/><path id="Shape" d="m45.81 34.23 3.19.27-10-14 2.13 7.18z" fill="#6a1b9a"/><path id="Shape" d="m43 34h-14l7.72-10.42 2.28-3.08z" fill="#9d27b0"/><path id="Shape" d="m43 34-1.65 19.85-.01.02-.34 4.13h-6l-.24-.19-.03-.02-2.41-10.02-.01-.01-2.25-9.37-.34-1.42h-.01l-.71-2.97z" fill="#673ab7"/><path id="Shape" d="m30.06 38.39-4.06 2.61-6-7 9.71 2.97h.01z" fill="#9d27b0"/><path id="Shape" d="m26 41-5.95 5.98-.05-12.98z" fill="#673ab7"/><path id="Shape" d="m32.31 47.76-6.31-6.76 4.06-2.61z" fill="#9d27b0"/><path id="Shape" d="m34.73 57.79-4.29-2.73-10.39-8.08 5.95-5.98 6.31 6.76.01.01z" fill="#673ab7"/><path id="Shape" d="m57.14 33.58-4.71 5.17-7.78 8.52 3.92-11.5z" fill="#673ab7"/><path id="Shape" d="m58.01 43.61-5.58-4.86 4.71-5.17z" fill="#9d27b0"/><path id="Shape" d="m54.77 40.78 3.24 2.83-.87-10.03-2.74 3.01z" fill="#6a1b9a"/><path id="Shape" d="m58.01 43.61-12.43 14.39h-4.58l3.65-10.73 7.78-8.52z" fill="#9d27b0"/><path id="Shape" d="m52.43 38.75-1.33 1.45 3.91 3.41-12.43 14.39h3l12.43-14.39z" fill="#6a1b9a"/></g><g id="Icons_copy" fill="#000"><path id="Shape" d="m58.72 33.76c-.2410148-.1699384-.54475-.2248303-.83-.15l-6.89 1.76c-.0221925-.1624906-.0840079-.3170292-.18-.45l-10-14c-.1846103-.2593599-.4816815-.4153223-.8-.42-.3120812.0216817-.6030729.1653813-.81.4l-1.27 1.72c-3.9666055-8.123292-9.2060173-15.5604209-15.52-22.03-.3757964-.3780394-.8869554-.59042238-1.42-.59-.5275385.0075141-1.0307391.22317147-1.4.6-2.5004793 2.54738619-4.8384191 5.24937666-7 8.09-1.1568757-2.39300222-1.7064008-5.03415743-1.6-7.69 0-.55228473-.4477153-.99999996-1-.99999996-.55228473 0-.99999998.44771523-1 .99999996 0 11.77-7.66 12-8 12-.55228475 0-1 .4477153-1 1s.44771525 1 1 1c1.41272076.1031994 2.76780159.6022573 3.91 1.44.59257849.4453311 1.12089154.9702791 1.57 1.56-3.84 6.74-6.01 13.14-6.41 19-.38506771 5.8992655 1.62685915 11.7042875 5.58 16.1 3.72928454 4.2076587 9.0210461 6.7017267 14.64 6.9h.71c3.6489773-.0000713 7.2344118-.955038 10.4-2.77l3.49 2.22c.1678096.3330988.5070508.5451245.88.55h10.8c.2923118.0000192.5699973-.1278622.76-.35l12.44-14.39c.1766003-.2041626.2631586-.4710507.24-.74l-.87-10c-.0169693-.3040712-.171577-.5838374-.42-.76zm-26.67 21.51-9.5-7.39 4.45-4.44 5.42 5.82 1.78 7.36zm-.6-10-2.9-3.12 1.86-1.15zm-1.53-6.38-2.73 1.76-3.19-3.65 5.88 1.8zm-7.92-1.18 3.64 4.29-3.64 3.56zm14.57 20.29-5.3-22h11.64l-1.56 18.79-.25 3.09v.08zm8.2-23.94-2.12-7.12 5.28 7.39zm.14 2 3.73.31-3.93 11.56-1 3zm5.43 1.51h.07l4.74-1.21-7 7.67zm7-.65.46 5.29-2.95-2.57zm-17.73-13.21 3 10.29h-10.61zm-34.93-9.71c2.55360082-1.3023505 4.47228141-3.5816853 5.32-6.32.3923866 1.15706387.9552526 2.24909124 1.67 3.24.0369207.0523875.0769948.1024801.12.15.9312974 1.2393251 2.1403574 2.2428792 3.53 2.93-2.5536008 1.3023505-4.4722814 3.5816853-5.32 6.32-.36077696-1.044426-.85844724-2.0364039-1.48-2.95-.02753508-.0505477-.06111489-.0975594-.1-.14-.95681707-1.372596-2.24274699-2.4831719-3.74-3.23zm15.67 44c-5.0771273-.1829601-9.856453-2.4424749-13.22-6.25-3.59150945-3.9902153-5.41655009-9.2633564-5.06-14.62.36-5.27 2.25-11.05 5.6-17.19.94389112 2.2309072 1.39745919 4.6385693 1.33 7.06 0 .5522847.44771525 1 1 1 .5522847 0 1-.4477153 1-1 0-11.78 7.68-12 8-12 .5522847 0 1-.4477153 1-1s-.4477153-1-1-1c-1.9982119-.1427487-3.8562669-1.078978-5.16-2.6 2.2040592-2.95064879 4.5956651-5.75644337 7.16-8.4 1.06 1.08 10.4 10.69 15.57 22.46l-7.37 9.94c-.1768576.2378072-.2391235.5418112-.17.83l.3 1.27-8-2.46c-.3085464-.10791-.6503559-.058212-.915397.1330959-.265041.1913078-.4198539.5000741-.414603.8269041l.05 13c.0007439.3094966.144753.6012074.39.79l9.2 7.15c-2.8673852 1.4758127-6.0675493 2.1854292-9.29 2.06zm25.77 0h-2.72l3.13-9.21 7-7.65 4.09 3.57z"/></g></g></g></svg>